<svg width="483" height="354" viewBox="0 0 483 354" fill="none" xmlns="http://www.w3.org/2000/svg">
<path d="M2.05445 252.728C-0.60555 220.568 -2.99555 186.698 10.6445 157.458C18.3645 140.908 30.7145 127.068 41.1245 112.048C53.6544 94.0181 63.4744 74.188 76.4744 56.468C89.4744 38.758 106.494 22.8181 127.684 17.0081C171.194 5.06805 216.624 38.718 260.894 30.038C280.524 26.188 297.554 14.388 316.254 7.24805C336.084 -0.351952 358.394 -2.63196 378.704 3.58804C399.014 9.80804 416.924 25.158 423.734 45.268C431.504 68.218 424.544 93.808 430.244 117.358C436.034 141.398 454.124 160.288 466.064 181.948C479.654 206.748 485.234 235.148 482.024 263.248C480.344 277.578 476.184 292.008 467.294 303.408C457.604 315.818 443.164 323.548 428.694 329.748C369.064 355.138 302.814 360.568 239.844 345.208C217.414 339.668 195.424 331.508 172.384 330.008C149.144 328.478 126.074 333.818 102.914 336.458C80.5345 339.018 47.3745 339.458 27.6345 326.538C6.38445 312.548 3.92445 275.148 2.06445 252.728H2.05445Z" fill="#71B8D9"/>
<path d="M414.714 181.238C412.644 210.408 396.104 238.138 399.544 267.188C400.514 275.488 403.124 283.708 402.374 291.998C401.564 300.758 402.124 309.588 402.124 318.378C402.064 319.148 402.184 319.928 402.484 320.638C402.894 321.288 403.484 321.808 404.184 322.138C406.694 323.488 409.604 323.878 412.384 323.238C414.614 308.248 415.894 293.138 416.214 277.988C416.314 273.188 416.324 268.308 417.624 263.698C418.644 260.488 419.984 257.378 421.604 254.418C425.734 246.318 429.834 238.208 433.884 230.068L437.914 222.038C439.154 219.558 440.394 217.078 441.634 214.598C444.624 208.318 447.344 201.678 447.244 194.748C447.174 189.888 445.404 184.718 441.394 181.988C438.494 180.018 434.844 179.508 431.344 179.398C426.404 179.148 419.584 180.628 414.714 181.238Z" fill="#231F20"/>
<path d="M444.074 218.848C443.304 225.698 441.664 232.418 440.894 239.268C440.344 244.228 440.254 249.188 440.184 254.148C439.884 275.648 440.084 297.148 440.764 318.648C440.764 320.248 440.764 322.018 439.764 323.228C438.154 325.048 435.224 324.468 432.904 323.778C431.664 305.568 426.394 284.518 425.184 266.328C424.494 255.968 419.544 245.568 419.864 235.198C420.184 225.278 429.784 218.158 433.574 208.968C434.714 206.178 439.164 196.568 443.634 200.668C446.734 203.578 444.504 215.008 444.064 218.868L444.074 218.848Z" fill="#231F20"/>
<path d="M401.474 331.718C400.644 332.458 399.454 333.108 399.424 334.198C399.454 334.688 399.614 335.158 399.884 335.558C400.064 336.028 400.424 336.408 400.874 336.628C401.204 336.718 401.544 336.718 401.864 336.628L406.824 335.538C407.634 335.408 408.414 335.118 409.114 334.698C410.714 333.558 410.864 331.288 410.874 329.328V326.278C410.874 324.268 410.814 321.668 408.824 320.518C407.534 319.668 405.794 320.008 404.914 321.288C402.884 324.398 404.544 328.908 401.454 331.718H401.474Z" fill="#FFB4A3"/>
<path d="M394.644 334.748C394.154 335.028 393.784 335.468 393.574 335.988C393.434 336.658 393.704 337.358 394.254 337.758C394.804 338.148 395.434 338.398 396.104 338.488C397.544 338.718 399.004 338.818 400.474 338.798L408.384 338.898C409.004 338.978 409.624 338.838 410.144 338.498C410.554 338.068 410.804 337.498 410.824 336.898C410.984 335.718 411.024 334.538 410.924 333.348C410.924 333.138 410.844 332.928 410.684 332.778C410.514 332.678 410.314 332.658 410.124 332.718C407.564 333.148 403.794 335.518 401.444 333.718C400.634 333.098 400.204 332.638 399.074 332.798C397.474 333.118 395.954 333.778 394.634 334.738L394.644 334.748Z" fill="#231F20"/>
<path d="M425.974 332.028C425.524 332.288 425.064 332.718 425.144 333.268C425.224 333.818 426.014 334.138 426.654 334.198C429.074 334.448 431.524 334.328 433.914 333.838C434.924 333.688 435.884 333.318 436.744 332.758C438.464 331.518 438.924 329.138 439.124 326.998C439.494 325.048 439.184 323.038 438.254 321.288C436.394 318.508 433.044 323.448 432.574 325.268C432.354 326.908 431.664 328.448 430.594 329.698C429.304 330.878 427.454 331.138 425.984 332.018L425.974 332.028Z" fill="#FFB4A3"/>
<path d="M433.624 328.928C433.064 328.568 432.584 327.998 431.914 327.958C431.424 327.968 430.954 328.138 430.564 328.438C428.454 329.678 426.384 331.108 424.364 332.548C423.734 332.938 423.184 333.448 422.754 334.048C422.304 334.658 422.234 335.468 422.564 336.148C422.854 336.588 423.294 336.908 423.804 337.038C424.794 337.268 425.824 337.268 426.814 337.038C431.374 336.278 436.674 335.798 440.994 334.108C444.234 332.868 442.544 329.048 439.534 329.008C437.534 328.968 435.574 330.158 433.634 328.918L433.624 328.928Z" fill="#231F20"/>
<path d="M447.644 123.288C449.094 126.028 450.014 129.018 450.364 132.098C450.364 134.948 449.804 137.768 448.694 140.388C446.374 146.328 443.644 152.108 440.544 157.678C441.314 156.228 440.124 151.478 440.014 149.828C439.844 147.088 439.684 144.348 439.534 141.588C439.224 135.968 438.964 130.338 438.754 124.708C438.654 122.038 436.914 113.808 440.924 112.738C444.274 111.848 446.484 120.688 447.664 123.298L447.644 123.288Z" fill="#FFB4A3"/>
<path d="M409.044 154.928C409.474 151.978 409.624 148.988 409.504 146.008C409.514 143.438 409.294 140.878 408.834 138.358C407.754 133.218 404.894 128.438 405.114 123.148C405.314 117.298 409.224 112.308 412.954 107.778C414.394 105.898 416.034 104.178 417.844 102.658C419.684 101.148 421.964 100.278 424.344 100.178C428.664 100.178 433.314 98.8381 436.824 101.358C440.334 103.878 441.564 108.528 442.234 112.828C444.984 130.648 442.494 148.948 444.714 166.848C445.574 173.778 447.194 180.618 447.804 187.578C447.984 188.348 447.814 189.158 447.344 189.788C446.884 190.138 446.324 190.328 445.744 190.318C434.874 191.438 423.894 190.978 413.164 188.958C412.754 188.918 412.364 188.758 412.064 188.488C411.854 188.198 411.724 187.848 411.694 187.488C409.884 176.868 407.274 165.508 409.064 154.938L409.044 154.928Z" fill="#71B8D9"/>
<path d="M408.554 81.2681C407.884 82.1481 406.954 83.0881 407.244 84.1581C407.454 84.9981 408.324 85.3981 408.894 86.0981C410.284 87.6581 409.834 90.1681 410.864 91.9781C411.764 93.328 413.204 94.238 414.804 94.458C416.404 94.678 418.014 94.7681 419.634 94.7281C420.774 94.6381 421.894 95.0281 422.724 95.8081C423.964 97.2481 423.194 100.028 424.904 100.828C425.344 101.008 425.824 101.078 426.304 101.038C428.164 101.028 430.014 100.888 431.844 100.618C432.504 100.588 433.134 100.348 433.644 99.9381C434.134 99.3481 434.404 98.5981 434.384 97.8281C435.194 89.1081 433.844 80.3281 430.454 72.2481C429.904 70.7781 429.104 69.4081 428.084 68.2181C426.844 66.9781 425.324 66.0381 423.654 65.4881C421.664 64.7481 419.574 64.3281 417.454 64.2481C415.664 64.0481 413.854 64.4881 412.354 65.4881C407.594 69.2981 412.164 76.4981 408.544 81.2681H408.554Z" fill="#FFB4A3"/>
<path d="M405.084 62.6581C405.054 63.5981 405.174 64.528 405.454 65.428C406.174 67.498 408.184 68.928 408.924 70.998C409.484 69.188 410.674 67.6381 412.284 66.6281C412.624 67.688 413.304 68.618 414.224 69.258C414.594 69.458 414.924 69.748 415.184 70.088C415.384 70.568 415.434 71.0881 415.344 71.5981C415.284 73.8281 416.374 75.938 418.224 77.178C419.004 77.688 419.894 78.008 420.704 78.538C421.894 79.478 422.894 80.648 423.634 81.978C425.584 84.978 427.574 88.178 427.904 91.698C428.124 94.178 427.504 96.788 428.234 99.138C429.304 102.298 432.424 104.278 435.734 103.918C435.984 107.698 438.164 111.088 441.504 112.888C444.874 114.618 448.884 114.598 452.234 112.828C453.754 112.088 454.984 110.868 455.734 109.358C456.214 108.108 456.404 106.768 456.304 105.438C456.194 101.298 454.904 96.978 451.774 94.278C451.364 93.978 451.014 93.608 450.744 93.188C450.184 92.138 450.744 90.898 451.274 89.798C453.574 84.1981 452.124 77.758 447.654 73.668C447.074 73.248 446.584 72.718 446.204 72.108C445.954 71.498 445.834 70.848 445.854 70.198C445.684 66.058 445.484 61.6881 443.284 58.1581C441.124 54.9881 437.864 52.728 434.134 51.818C430.424 50.938 426.604 50.6281 422.814 50.9081C415.184 51.2181 405.104 53.2881 405.094 62.6581H405.084Z" fill="#C14834"/>
<path d="M400.014 129.588C399.004 130.518 397.834 131.248 396.564 131.758C395.204 132.148 393.774 132.298 392.364 132.188C380.774 131.918 368.794 129.138 359.864 121.808C358.114 120.378 356.364 118.718 354.134 118.388L356.194 122.688H347.804C346.904 122.618 346.004 122.768 345.174 123.108C344.334 123.488 343.864 124.398 344.044 125.308C344.264 125.808 344.624 126.238 345.074 126.548C347.554 128.558 350.174 130.578 353.294 131.148C354.844 131.438 356.444 131.338 358.024 131.478C361.594 131.828 364.894 133.448 368.144 134.978C374.074 137.778 380.084 140.368 386.194 142.758C389.224 143.998 392.484 145.098 395.654 144.368C397.234 143.928 398.744 143.258 400.134 142.368C408.814 137.408 417.634 132.378 424.454 125.088C427.104 122.248 429.544 118.888 429.674 114.938C429.784 111.758 427.734 108.138 424.514 107.308C421.284 106.478 418.314 109.988 416.064 112.158C410.434 117.748 406.064 124.478 400.004 129.568L400.014 129.588Z" fill="#FFB4A3"/>
<path d="M220.844 232.078H215.924V288.888H220.844V232.078Z" fill="#71B8D9"/>
<path d="M233.514 289.358H198.794V296.308H233.514V289.358Z" fill="#71B8D9"/>
<path d="M200.854 210.188C200.274 211.528 199.804 212.918 199.474 214.348C199.154 215.808 199.744 217.318 200.964 218.178C201.404 218.398 201.884 218.528 202.374 218.548C203.804 218.628 205.204 218.058 206.174 216.998C207.114 215.788 207.714 214.348 207.914 212.828C208.614 209.228 208.794 205.548 208.444 201.898C208.174 199.058 205.294 195.698 203.024 198.908C201.014 201.798 201.984 206.868 200.854 210.188Z" fill="#231F20"/>
<path d="M190.524 207.608C187.324 210.508 191.974 221.958 194.504 225.458C197.034 228.958 199.024 232.898 203.184 234.008C208.314 235.178 213.554 235.828 218.814 235.958C230.134 236.578 241.504 236.898 252.834 236.438C257.844 236.358 262.834 235.758 267.714 234.638C270.864 233.828 274.234 232.368 275.474 229.368C276.624 226.578 275.474 223.248 273.374 221.108C271.134 219.068 268.424 217.618 265.484 216.878C255.154 213.668 244.224 213.428 233.484 213.258C228.204 213.188 222.854 213.258 217.584 212.698C214.244 212.368 211.024 211.608 207.664 211.838C203.214 212.158 193.994 204.468 190.514 207.608H190.524Z" fill="#231F20"/>
<path d="M210.844 226.998C214.984 229.748 219.974 229.718 224.724 229.628L251.914 229.068C255.024 229.008 258.244 228.918 261.094 227.418C265.904 224.938 268.904 217.958 267.384 211.958C267.124 210.578 266.404 209.328 265.334 208.408C264.184 207.768 262.854 207.538 261.554 207.748C247.454 208.538 229.494 203.658 215.384 204.448C212.084 204.638 207.214 209.028 204.864 212.928C202.124 217.508 207.714 224.908 210.844 226.978V226.998Z" fill="#231F20"/>
<path d="M224.274 286.178C224.384 287.838 224.694 289.778 226.234 290.528C226.934 290.808 227.684 290.938 228.434 290.898L237.784 291.188C238.314 291.258 238.854 291.148 239.324 290.878C239.714 290.518 239.954 290.018 239.994 289.488C240.784 285.308 240.884 280.968 241.104 276.738C241.764 263.908 241.974 251.068 242.354 238.228C242.524 232.318 242.704 226.418 243.004 220.518C243.304 214.618 244.384 208.088 242.204 202.508C241.724 201.268 241.074 200.058 240.054 199.198C238.214 197.638 235.594 197.518 233.184 197.478C229.054 197.408 224.924 197.328 220.794 197.258C218.654 197.218 216.364 197.228 214.614 198.448C211.684 200.478 211.774 205.218 214.124 207.908C215.154 209.088 216.494 209.948 217.634 211.018C223.694 216.638 222.274 225.788 222.324 233.208C222.394 241.908 222.524 250.598 222.834 259.288C223.154 268.258 223.634 277.228 224.264 286.188L224.274 286.178Z" fill="#231F20"/>
<path d="M249.514 296.418C249.634 298.138 249.934 300.138 251.484 300.968C252.174 301.258 252.924 301.398 253.684 301.368L263.024 301.658C263.564 301.738 264.114 301.628 264.574 301.348C264.954 300.958 265.194 300.438 265.234 299.898C265.904 290.918 266.584 281.998 266.874 272.978C267.274 260.218 267.504 247.448 267.964 234.698C268.374 223.328 271.174 208.998 264.104 199.128C263.184 197.848 262.014 196.638 260.494 196.228C259.914 196.068 259.314 196.038 258.724 196.008C253.274 195.768 247.794 196.138 242.424 197.088C240.674 197.398 238.584 198.108 238.254 199.858C237.894 201.778 239.904 203.198 241.444 204.398C249.784 210.918 247.474 224.298 247.544 233.568C247.634 245.118 247.694 256.668 248.104 268.218C248.434 277.618 248.914 287.018 249.534 296.408L249.514 296.418Z" fill="#231F20"/>
<path d="M188.734 154.088L188.154 177.428C187.834 190.038 187.554 203.038 191.164 214.818C191.754 217.368 192.994 219.718 194.774 221.638C196.684 223.148 199.074 223.938 201.514 223.868C207.714 224.228 214.434 223.138 218.884 217.778C222.814 213.098 224.294 206.058 224.954 199.308C225.644 189.968 225.714 180.598 225.164 171.248C224.864 163.028 224.424 154.238 220.474 147.678C218.634 144.838 216.384 142.288 213.814 140.088C202.394 129.418 189.244 135.908 188.744 154.078L188.734 154.088Z" fill="#231F20"/>
<path d="M206.254 123.228C204.794 123.588 203.434 124.308 202.314 125.308C201.274 126.658 200.654 128.298 200.544 129.998L193.174 175.508C192.844 177.578 192.544 179.838 193.674 181.638C195.014 183.788 197.874 184.478 200.474 184.908C208.984 186.348 217.604 187.018 226.234 186.888C226.674 186.928 227.104 186.818 227.474 186.578C227.784 186.238 227.964 185.798 227.954 185.338C228.354 181.938 228.274 178.508 227.744 175.128L211.784 173.118C210.404 172.948 210.474 173.118 209.844 171.938C209.574 171.318 209.474 170.638 209.554 169.968C209.824 163.538 209.484 156.688 211.764 150.628C216.544 165.498 214.014 181.238 214.584 196.538C214.754 201.028 215.464 201.078 219.744 200.928C223.734 200.788 227.734 200.588 231.714 200.298C239.474 199.738 247.224 198.878 254.914 197.718C256.464 197.488 258.264 197.058 258.874 195.618C259.184 194.898 259.104 194.088 259.044 193.308C258.414 186.038 258.814 178.668 260.214 171.508C260.804 168.458 261.994 165.458 261.944 162.348C261.904 159.548 261.764 156.928 262.034 154.088C262.184 152.538 263.544 147.968 262.894 146.658L268.964 159.598C270.044 161.498 270.644 163.618 270.724 165.798C270.624 168.448 268.964 171.028 269.574 173.628L289.174 172.998L286.534 159.518C285.874 155.068 284.354 150.798 282.054 146.938L272.474 129.018C271.764 127.488 270.804 126.088 269.624 124.888C268.464 123.928 267.164 123.148 265.764 122.598C255.714 118.138 244.874 115.728 233.884 115.518C224.524 115.398 214.884 120.318 206.244 123.248L206.254 123.228Z" fill="#71B8D9"/>
<path d="M237.884 169.438C244.284 163.308 246.144 154.198 247.694 145.658L250.434 130.578C251.214 127.008 251.594 123.368 251.564 119.708C251.584 119.318 251.464 118.928 251.214 118.618C250.834 118.328 250.354 118.208 249.874 118.268C242.774 118.268 231.414 115.568 230.224 124.678C229.084 134.358 229.814 144.158 232.354 153.568C232.784 155.178 238.344 168.938 237.874 169.428L237.884 169.438Z" fill="white"/>
<path d="M232.644 114.258C232.374 115.548 232.314 116.868 232.454 118.178C232.644 119.108 233.014 119.998 233.544 120.798C234.684 122.908 236.674 124.438 239.014 124.978C241.044 125.278 243.054 124.348 244.964 123.388C245.844 123.028 246.624 122.468 247.244 121.748C248.014 120.658 248.454 119.368 248.484 118.028C248.564 116.248 248.464 114.468 248.164 112.718L247.294 106.208C247.274 105.928 247.194 105.658 247.044 105.418C246.884 105.238 246.664 105.128 246.424 105.098C243.114 104.308 238.544 102.838 235.194 104.028C231.844 105.218 233.074 111.008 232.624 114.258H232.644Z" fill="#C14834"/>
<path d="M249.664 94.2981C250.394 93.1981 251.514 91.9381 252.824 92.2781C253.964 92.7281 254.524 94.0181 254.074 95.1581C254.074 95.1581 254.074 95.168 254.074 95.178C253.564 96.248 252.904 97.2381 252.094 98.1081C249.714 101.288 249.294 105.658 246.354 108.378C244.004 110.278 241.054 111.268 238.034 111.158C236.844 111.228 235.644 111.078 234.494 110.728C231.814 109.788 230.204 107.178 229.244 104.628C228.184 101.638 227.544 98.5181 227.334 95.3481C226.984 92.5381 227.204 89.688 227.984 86.958C228.824 84.168 230.864 81.898 233.544 80.758C237.824 79.108 242.904 81.4681 245.564 85.0781C248.224 88.6881 249.004 93.2281 249.544 97.618" fill="#C14834"/>
<path d="M227.354 89.188C227.354 89.668 227.094 90.168 227.354 90.598C227.634 91.038 228.194 91.208 228.664 91.008C229.124 90.788 229.514 90.448 229.784 90.018C230.874 88.528 231.684 86.788 233.174 85.668C234.664 84.538 237.214 84.428 238.234 85.888C238.294 86.008 238.384 86.108 238.494 86.188C238.674 86.258 238.884 86.258 239.064 86.188C241.424 85.608 243.904 86.338 245.574 88.098C247.134 89.828 247.984 92.088 247.954 94.408C247.954 95.098 248.824 97.548 249.514 97.338C249.714 97.278 249.774 95.278 249.914 95.128C250.394 94.578 250.424 94.408 250.904 93.888C251.044 93.688 251.244 93.528 251.464 93.428C251.994 93.228 252.544 93.648 253.114 93.778C254.164 93.898 255.144 93.248 255.424 92.228C255.634 91.258 255.594 90.238 255.304 89.288C255.014 88.338 254.984 87.328 255.214 86.358C255.684 84.948 257.264 83.878 257.214 82.428C257.174 81.988 257.044 81.568 256.834 81.188C256.064 79.578 254.944 78.168 253.544 77.068C253.074 76.028 252.444 75.078 251.674 74.238C250.864 73.378 249.714 72.918 248.534 72.998C248.014 73.068 247.504 73.288 246.984 73.318C244.914 73.458 243.264 70.978 241.224 71.418C240.564 71.568 239.984 72.018 239.354 72.128C238.174 72.338 237.064 71.468 235.864 71.498C234.664 71.528 233.754 72.378 232.684 72.838C231.614 73.298 230.084 73.508 229.554 74.578C229.334 75.028 229.264 75.608 228.814 75.818C228.444 75.918 228.054 75.918 227.684 75.818C226.574 75.698 225.484 76.168 224.814 77.058C223.364 79.188 222.704 81.758 222.964 84.318C222.924 85.568 223.584 86.728 224.674 87.328C225.554 87.708 227.264 87.858 227.344 89.188H227.354Z" fill="#231F20"/>
<path d="M239.294 122.778C237.594 123.258 236.154 124.398 235.284 125.938C234.474 127.448 233.874 129.058 233.494 130.728C233.634 130.208 232.254 128.168 231.994 127.598C231.494 126.458 231.064 125.288 230.644 124.128C230.094 122.598 228.384 119.598 229.194 118.008C231.114 114.248 237.864 121.258 239.294 122.768V122.778Z" fill="white"/>
<path d="M241.614 123.258C244.254 124.278 245.834 126.828 248.054 128.538C248.164 128.628 248.294 128.688 248.434 128.708C248.584 128.698 248.734 128.628 248.844 128.518C250.154 127.408 251.134 125.958 251.664 124.328C252.264 122.728 253.074 116.488 249.594 117.978C248.294 118.748 247.064 119.638 245.934 120.648C244.554 121.608 243.114 122.478 241.614 123.248V123.258Z" fill="white"/>
<path d="M238.104 145.028C237.704 140.748 237.814 136.438 238.424 132.178C238.594 131.358 238.624 130.518 238.494 129.698C238.144 128.028 236.524 126.668 236.574 124.968C236.644 122.738 239.504 121.468 241.734 122.118C243.824 122.738 245.024 124.948 244.394 127.038C244.344 127.208 244.284 127.368 244.214 127.528C243.924 128.058 243.504 128.548 243.274 129.108C242.944 130.358 243.074 131.678 243.654 132.828C244.824 136.088 246.234 153.088 246.134 154.488C246.134 155.528 243.924 160.218 243.564 161.198C241.434 166.928 238.914 168.898 237.894 169.368C237.104 162.348 238.764 152.138 238.094 145.028H238.104Z" fill="#71B8D9"/>
<path d="M238.104 145.028C237.704 140.748 237.814 136.438 238.424 132.178C238.594 131.358 238.624 130.518 238.494 129.698C238.144 128.028 236.524 126.668 236.574 124.968C236.644 122.738 239.504 121.468 241.734 122.118C243.824 122.738 245.024 124.948 244.394 127.038C244.344 127.208 244.284 127.368 244.214 127.528C243.924 128.058 243.504 128.548 243.274 129.108C242.944 130.358 243.074 131.678 243.654 132.828C244.824 136.088 246.234 153.088 246.134 154.488C246.134 155.528 243.924 160.218 243.564 161.198C241.434 166.928 238.914 168.898 237.894 169.368C237.104 162.348 238.764 152.138 238.094 145.028H238.104Z" fill="url(#paint0_linear_81_1208)"/>
<path d="M231.434 176.578C231.884 176.498 232.344 176.648 232.674 176.978C232.784 177.158 232.844 177.358 232.844 177.558C233.054 179.438 233.004 181.348 232.694 183.218C232.654 183.798 232.404 184.348 232.004 184.768C231.404 185.148 230.674 185.298 229.974 185.178L227.044 185.068C226.834 185.068 226.614 185.028 226.424 184.928C226.234 184.788 226.084 184.598 226.014 184.368C225.284 182.668 224.484 179.558 225.354 177.778C226.224 175.998 229.774 176.548 231.434 176.578Z" fill="white"/>
<path d="M239.864 176.498C239.934 177.068 239.614 177.608 239.084 177.808C240.114 178.308 241.234 178.608 242.374 178.698C244.604 179.058 246.754 179.758 248.774 180.768C250.224 181.498 251.714 182.558 251.974 184.088C252.034 184.278 252.034 184.488 251.974 184.688C251.874 184.848 251.744 184.988 251.594 185.088C250.074 185.888 248.344 186.198 246.634 185.998C241.674 185.908 236.434 185.908 231.754 184.088C231.374 183.968 231.034 183.758 230.734 183.488C230.464 183.178 230.294 182.788 230.234 182.388C229.824 180.428 230.234 178.888 232.084 178.038C234.524 176.918 237.194 176.398 239.874 176.498H239.864Z" fill="#C14834"/>
<path d="M224.324 301.208C224.754 302.068 225.384 302.818 226.164 303.388C228.124 305.288 230.394 306.838 232.874 307.978C236.014 309.218 239.514 309.218 242.904 309.128C244.144 309.128 245.534 308.978 246.164 307.988C246.794 306.998 246.264 305.718 245.684 304.698C243.374 300.668 240.314 296.898 239.284 292.408C238.954 290.998 238.774 289.418 237.644 288.438C235.164 286.318 228.884 287.088 226.854 289.558C225.944 290.888 225.364 292.408 225.144 293.998C224.714 296.058 223.474 299.148 224.324 301.208Z" fill="#231F20"/>
<path d="M251.914 302.098C253.084 302.658 254.274 303.178 255.474 303.648C255.784 303.808 256.154 303.848 256.494 303.758C256.724 303.628 256.914 303.438 257.044 303.198L258.664 300.718C261.664 304.028 266.824 304.438 271.414 304.348C273.594 304.348 275.764 304.258 277.934 304.158C278.894 304.158 280.054 303.908 280.414 303.038C280.774 302.168 279.964 301.428 279.264 300.908C275.464 298.118 270.164 297.348 267.084 293.848C265.844 292.408 264.974 290.548 263.364 289.548C261.824 288.788 260.114 288.438 258.404 288.528C255.624 288.458 252.524 288.178 252.204 291.258C251.834 294.858 251.744 298.478 251.914 302.088V302.098Z" fill="#231F20"/>
<path d="M269.624 178.458L281.134 132.978H330.364L314.004 180.238L313.634 184.108H253.364V180.318L269.624 178.458Z" fill="#231F20"/>
<path d="M251.114 96.148C251.134 96.058 251.134 95.968 251.114 95.888C250.984 95.488 250.984 95.048 251.114 94.648C251.204 94.488 251.334 94.358 251.494 94.2681C251.734 94.118 252.004 94.038 252.284 94.0181C252.364 93.9981 252.444 93.9981 252.524 94.0181C252.614 94.078 252.684 94.1581 252.714 94.2681C252.874 94.7381 252.874 95.238 252.714 95.708C252.544 96.248 252.244 96.748 251.844 97.1581C251.524 97.5281 251.084 97.758 250.604 97.808C250.544 97.818 250.484 97.818 250.414 97.808C250.364 97.778 250.324 97.728 250.304 97.668C250.124 97.408 250.124 97.068 250.304 96.808C250.564 96.598 250.974 96.478 251.114 96.148Z" fill="url(#paint1_linear_81_1208)"/>
<path d="M120.184 150.488C120.774 150.298 121.424 150.358 121.974 150.658C122.324 150.988 122.544 151.428 122.614 151.898C123.064 153.638 123.314 155.418 123.374 157.208C123.444 157.988 123.324 158.778 123.024 159.498C122.594 160.238 121.984 160.868 121.254 161.318C112.354 167.888 103.014 173.828 93.2944 179.118C92.8844 179.338 89.1644 166.718 89.1044 165.478C88.9044 162.158 89.9644 160.648 92.8244 159.148C101.024 154.908 111.204 152.198 120.184 150.478V150.488Z" fill="#71B8D9"/>
<path d="M120.184 150.588C120.774 150.388 121.424 150.458 121.974 150.758C122.324 151.088 122.544 151.528 122.614 151.998C123.064 153.738 123.314 155.518 123.374 157.308C123.444 158.088 123.324 158.878 123.024 159.598C122.584 160.338 121.984 160.958 121.254 161.408C112.354 167.978 103.014 173.938 93.2944 179.218C92.8844 179.438 89.1644 166.818 89.1044 165.578C88.9044 162.258 89.9644 160.748 92.8244 159.248C101.024 154.998 111.204 152.298 120.184 150.578V150.588Z" fill="url(#paint2_linear_81_1208)"/>
<path d="M189.204 267.558C190.364 267.768 191.474 268.188 192.494 268.798C193.514 269.438 194.084 270.598 193.954 271.798C193.584 273.718 191.134 274.278 189.194 274.388C181.464 274.818 173.704 274.448 166.044 273.288C165.334 273.178 164.484 273.118 164.034 273.668C163.584 274.218 163.734 274.658 163.574 275.158C163.044 276.828 160.494 276.928 159.204 275.738C158.074 274.398 157.374 272.738 157.204 270.988C155.804 264.328 153.424 257.908 150.154 251.938C149.304 250.558 148.634 249.068 148.174 247.508C147.134 243.178 151.614 239.568 155.354 242.348C158.714 244.828 160.984 249.928 164.034 252.968C171.014 259.928 179.684 264.948 189.194 267.558H189.204Z" fill="#231F20"/>
<path d="M144.664 316.168C144.464 317.828 144.554 319.508 144.934 321.128C145.364 322.788 146.834 323.968 148.554 324.018C150.764 323.818 151.804 321.238 152.374 319.058C160.324 325.548 171.634 325.968 181.784 324.378C182.254 324.378 182.694 324.188 183.024 323.858C183.684 323.028 182.544 321.958 181.584 321.498L164.904 313.568C160.974 311.698 156.874 309.688 154.344 306.128C152.474 303.508 148.884 290.248 143.964 297.448C140.674 302.248 144.844 310.958 144.654 316.168H144.664Z" fill="#231F20"/>
<path d="M88.8645 234.058L114.064 243.028C115.634 243.428 117.064 244.258 118.184 245.438C118.924 246.558 119.384 247.828 119.544 249.158C122.784 265.848 125.144 282.698 126.624 299.628C134.474 301.558 142.654 301.678 150.564 299.998C151.284 299.938 151.934 299.578 152.374 299.008C152.544 298.618 152.614 298.188 152.574 297.768C152.254 278.198 150.094 258.378 142.654 240.238C141.624 237.178 139.894 234.398 137.594 232.128C135.114 229.998 131.924 229.028 128.914 227.798C123.954 225.738 119.074 222.838 113.674 222.378C105.714 221.758 98.3645 226.748 92.7445 232.428C91.6045 232.328 89.8645 233.518 88.8645 234.068V234.058Z" fill="#71B8D9"/>
<path d="M88.6644 233.868L113.864 242.828C115.434 243.228 116.864 244.068 117.984 245.238C118.724 246.348 119.194 247.628 119.344 248.958C122.584 265.648 124.954 282.488 126.444 299.418C134.284 301.348 142.464 301.478 150.374 299.798C151.094 299.748 151.754 299.388 152.184 298.808C152.354 298.418 152.424 297.988 152.394 297.568C152.074 278.008 149.834 258.178 142.474 240.048C141.444 236.978 139.704 234.198 137.404 231.928C134.924 229.808 131.744 228.838 128.724 227.608C123.764 225.548 118.884 222.648 113.484 222.188C105.524 221.558 98.1744 226.558 92.5544 232.238C91.4144 232.098 89.6844 233.338 88.6744 233.878L88.6644 233.868Z" fill="url(#paint3_linear_81_1208)"/>
<path d="M68.6745 253.698H63.7545V310.508H68.6745V253.698Z" fill="#71B8D9"/>
<path d="M81.3545 310.978H46.6344V317.928H81.3545V310.978Z" fill="#71B8D9"/>
<path d="M100.314 108.448C100.564 109.188 100.564 109.978 100.314 110.718C99.9044 111.578 98.9044 111.958 98.1945 112.588C96.4344 114.168 96.7345 116.968 95.8344 119.148C94.4744 122.148 91.0444 123.598 87.9445 122.468C87.5645 122.258 87.1345 122.158 86.7045 122.178C86.3645 122.288 86.0645 122.518 85.8745 122.828C84.6345 124.518 84.6345 127.048 83.1445 128.488C81.8845 129.528 80.1345 129.758 78.6544 129.068C77.2045 128.368 76.0345 127.208 75.3045 125.768C72.8244 121.398 73.4545 116.058 74.0645 111.108C74.6745 106.158 75.3045 101.478 77.1645 97.038C77.6544 95.668 78.4645 94.438 79.5245 93.438C81.2845 91.9481 83.7445 91.718 86.0345 91.578C88.2545 91.3381 90.4945 91.4481 92.6845 91.9081C99.4345 93.6981 99.0745 102.778 100.314 108.428V108.448Z" fill="#FFB4A3"/>
<path d="M99.9645 87.618C100.894 88.118 101.514 89.048 101.624 90.098C101.664 91.638 100.844 93.078 99.4945 93.818C98.1445 94.528 96.6544 94.898 95.1245 94.898C93.6144 94.898 92.1045 94.998 90.6045 95.228C89.1145 95.468 87.7745 96.298 86.8845 97.518C85.7945 99.218 86.1045 101.428 86.1145 103.448C86.1645 104.028 86.0445 104.608 85.7945 105.138C85.5245 105.678 84.8945 105.948 84.3145 105.768C84.0145 105.608 83.7645 105.368 83.5945 105.078C83.1245 104.278 82.6144 103.498 82.0545 102.758C81.5044 102.018 80.6444 101.568 79.7244 101.518C78.8845 101.588 78.1045 102.008 77.5945 102.668C77.0844 103.238 76.7445 103.948 76.6345 104.698C76.4245 106.358 77.5045 107.898 78.5245 109.228C77.4945 111.118 75.9145 112.648 74.0045 113.648C73.4745 113.968 72.8745 114.138 72.2545 114.128C71.1745 114.028 70.4145 113.038 69.7745 112.148L65.2145 105.428C64.3945 104.388 63.8445 103.158 63.6145 101.858C63.5845 100.468 63.9145 99.088 64.5844 97.868C65.5444 95.348 66.8745 92.988 68.5445 90.868C69.8045 89.128 70.8945 87.288 71.8145 85.348C72.7845 83.348 74.5545 81.848 76.6845 81.228C78.9445 80.798 81.1645 82.008 83.4245 82.468C85.6845 82.928 88.1045 82.668 90.3945 83.108C93.4545 83.758 97.1945 86.168 99.9545 87.608L99.9645 87.618Z" fill="#231F20"/>
<path d="M79.5844 125.298C81.1044 126.228 82.3745 127.498 83.3045 129.018C84.6144 131.498 84.1645 134.478 83.6645 137.218C78.2645 134.378 73.5044 130.458 69.6945 125.678C68.2844 123.808 68.8145 120.378 71.7645 120.568C74.3445 120.708 77.6445 123.918 79.5745 125.298H79.5844Z" fill="white"/>
<path d="M81.6645 135.508C82.6645 136.588 83.5245 137.788 84.2445 139.068C85.2345 140.968 95.1945 173.058 95.4845 175.038C95.6844 176.918 95.6544 178.808 95.4145 180.678L92.6145 211.008C92.6145 211.558 92.4645 212.098 92.1645 212.558C91.8245 212.918 91.3945 213.178 90.9245 213.318L70.9945 220.758C68.0445 221.958 64.9945 222.888 61.8745 223.528C59.4744 223.918 57.2045 224.868 55.2345 226.298C51.8145 228.778 50.7045 236.308 47.7345 236.358C45.4645 229.908 52.8045 203.708 54.0745 198.908C58.5445 181.878 52.6945 164.008 52.4545 146.388C52.3445 143.478 52.5945 140.558 53.1945 137.708C54.6045 131.678 59.0145 125.308 64.8145 122.688C66.7245 121.848 66.4644 121.748 68.4445 123.188C70.0044 124.338 71.5345 125.598 73.0045 126.908C76.0845 129.568 78.9845 132.448 81.6645 135.518V135.508Z" fill="#71B8D9"/>
<path d="M61.1244 161.388L79.1945 197.978L79.5745 218.098C79.5745 218.098 92.2844 214.018 92.9044 207.798C93.5245 201.588 94.0844 188.198 94.0844 188.198L65.6645 153.938L61.1145 161.378L61.1244 161.388Z" fill="url(#paint4_linear_81_1208)"/>
<path d="M59.7345 139.298C58.8245 145.068 58.4145 150.908 58.4945 156.748C58.4645 158.098 58.6144 159.448 58.9445 160.758C59.5145 162.418 60.3545 163.978 61.4245 165.368C68.3945 175.388 76.2845 184.728 84.9945 193.278C85.7345 194.158 86.7045 194.808 87.7945 195.168C88.5545 195.308 89.3345 195.308 90.1045 195.168L121.874 190.528C122.964 190.678 123.964 189.918 124.114 188.838C124.154 188.558 124.134 188.268 124.044 187.988L123.234 178.358C113.044 179.278 102.764 178.628 92.7745 176.438C91.6745 176.278 90.6245 175.858 89.7244 175.198C89.0044 174.448 88.4745 173.548 88.1445 172.558C83.6545 162.078 79.2244 151.588 74.6945 141.128C73.4545 138.148 72.0745 134.688 68.4945 133.908C64.4145 132.968 60.4445 135.098 59.7345 139.308V139.298Z" fill="#71B8D9"/>
<path d="M124.734 179.788C125.804 179.598 127.124 179.528 127.734 180.418C127.944 180.798 128.074 181.218 128.094 181.658C128.254 182.898 128.384 184.238 128.454 185.538C128.634 186.798 128.454 188.088 127.944 189.258C126.004 189.258 124.064 189.198 122.124 189.068C121.854 189.068 121.584 188.998 121.344 188.858C121.174 188.688 121.034 188.468 120.964 188.238C120.334 186.598 118.964 183.278 119.614 181.538C120.264 179.798 123.314 179.988 124.734 179.778V179.788Z" fill="white"/>
<path d="M132.394 178.108C133.614 177.248 134.964 176.598 136.404 176.188C138.554 175.908 140.734 176.458 142.484 177.738C144.284 178.908 145.844 180.388 147.664 181.538C149.484 182.688 151.684 183.548 153.324 185.048C153.554 185.218 153.714 185.478 153.754 185.768C153.754 186.168 153.404 186.448 153.044 186.628C150.944 187.658 148.454 186.998 146.184 186.438C144.364 185.988 142.324 185.648 140.724 186.598C139.364 187.408 138.554 189.078 137.004 189.558C136.044 189.798 135.034 189.778 134.094 189.488C131.504 188.898 128.984 188.068 126.554 187.008C126.184 186.868 125.844 186.658 125.554 186.388C124.314 185.148 124.684 181.858 126.184 180.928C126.984 180.538 127.814 180.208 128.664 179.958C129.954 179.438 131.204 178.818 132.394 178.108Z" fill="#FFB4A3"/>
<path d="M122.654 200.538C125.174 198.948 128.494 199.698 130.094 202.198C139.974 213.298 148.954 225.178 156.934 237.708C157.174 238.018 157.334 238.388 157.404 238.778C157.344 239.628 156.884 240.408 156.164 240.858L147.254 249.048C146.854 249.508 146.304 249.798 145.704 249.878C145.204 249.808 144.744 249.588 144.374 249.248L120.654 231.118C120.094 230.588 119.384 230.248 118.624 230.128C118.084 230.138 117.554 230.278 117.074 230.528C113.014 232.298 109.384 234.918 105.364 236.808C96.4945 240.968 86.3445 241.278 76.5545 241.098C66.9445 240.928 57.1644 240.318 48.1844 236.908C46.3444 236.218 53.7444 222.928 57.2845 222.608C63.2745 222.058 69.1345 220.558 74.6544 218.168C78.9344 216.308 83.0145 213.828 87.5445 212.578C90.4145 211.788 90.1645 208.858 92.9744 207.828C101.904 204.688 113.664 203.588 122.644 200.558L122.654 200.538Z" fill="#71B8D9"/>
<path d="M122.654 200.538C125.174 198.948 128.494 199.698 130.094 202.198C139.974 213.298 148.954 225.178 156.934 237.708C157.174 238.018 157.334 238.388 157.404 238.778C157.344 239.628 156.884 240.408 156.164 240.858L147.254 249.048C146.854 249.508 146.304 249.798 145.704 249.878C145.204 249.808 144.744 249.588 144.374 249.248L120.654 231.118C120.094 230.588 119.384 230.248 118.624 230.128C118.084 230.138 117.554 230.278 117.074 230.528C113.014 232.298 109.384 234.918 105.364 236.808C96.4945 240.968 86.3445 241.278 76.5545 241.098C66.9445 240.928 57.1644 240.318 48.1844 236.908C46.3444 236.218 53.7444 222.928 57.2845 222.608C63.2745 222.058 69.1345 220.558 74.6544 218.168C78.9344 216.308 83.0145 213.828 87.5445 212.578C90.4145 211.788 90.1645 208.858 92.9744 207.828C101.904 204.688 113.664 203.588 122.644 200.558L122.654 200.538Z" fill="url(#paint5_linear_81_1208)"/>
<path d="M42.0844 162.628C44.4944 169.248 44.6744 176.448 44.8244 183.488L45.7944 228.738C45.7444 230.038 45.9345 231.328 46.3545 232.558C47.9345 236.488 53.1345 237.098 57.3645 237.098H91.4744C95.3444 237.098 99.4145 237.098 102.794 239.008C106.184 240.918 108.584 245.208 106.964 248.698C105.124 252.708 99.7744 253.278 95.3644 253.278H39.0844C37.5844 253.398 36.0744 253.138 34.7044 252.518C32.2244 251.158 31.7445 247.958 31.4645 245.178L23.5145 164.118C23.0644 159.518 22.2744 148.988 28.4744 148.308C34.3545 147.748 40.5145 158.378 42.0644 162.638L42.0844 162.628Z" fill="#231F20"/>
<path d="M118.034 155.038C121.514 150.078 125.904 145.818 130.954 142.488L130.324 147.218C135.534 144.438 141.154 142.488 146.974 141.448C147.994 141.278 149.334 141.298 149.674 142.268C149.944 143.038 149.344 143.808 148.784 144.398C145.854 147.698 142.624 150.718 139.134 153.428C135.614 156.138 131.414 157.818 127.004 158.288C125.344 158.498 123.654 158.178 122.174 157.378C120.694 156.518 119.954 154.788 120.354 153.128" fill="#FFB4A3"/>
<path d="M117.354 150.628C116.874 150.658 116.414 150.808 116.014 151.078C115.524 151.558 115.274 152.228 115.324 152.918C115.374 154.498 115.754 156.058 116.454 157.478C116.844 158.488 117.454 159.398 118.224 160.158C119.014 160.918 120.144 161.228 121.214 160.968C122.304 160.488 123.154 159.598 123.594 158.488C123.724 158.288 123.794 158.048 123.794 157.808C123.794 157.408 123.424 157.138 123.134 156.868C121.244 155.108 122.604 153.288 121.684 151.458C120.764 149.638 119.004 150.418 117.354 150.638V150.628Z" fill="white"/>
<path d="M257.124 208.688C337.322 208.688 402.334 202.998 402.334 195.978C402.334 188.959 337.322 183.268 257.124 183.268C176.927 183.268 111.914 188.959 111.914 195.978C111.914 202.998 176.927 208.688 257.124 208.688Z" fill="#71B8D9"/>
<path d="M402.324 199.908C402.324 206.928 337.314 212.618 257.114 212.618C176.914 212.618 111.904 206.938 111.904 199.908C111.904 199.238 112.504 198.578 113.644 197.938C124.444 204.028 184.574 208.688 257.124 208.688C329.674 208.688 389.844 204.028 400.614 197.938C401.754 198.578 402.334 199.238 402.334 199.908H402.324Z" fill="#71B8D9"/>
<path d="M402.324 199.908C402.324 206.928 337.314 212.618 257.114 212.618C176.914 212.618 111.904 206.938 111.904 199.908C111.904 199.238 112.504 198.578 113.644 197.938C124.444 204.028 184.574 208.688 257.124 208.688C329.674 208.688 389.844 204.028 400.614 197.938C401.754 198.578 402.334 199.238 402.334 199.908H402.324Z" fill="url(#paint6_linear_81_1208)"/>
<path d="M400.594 197.938C389.794 204.028 329.654 208.688 257.104 208.688C184.554 208.688 124.384 204.028 113.624 197.938C124.424 191.858 184.554 187.198 257.104 187.198C329.654 187.198 389.784 191.858 400.594 197.938Z" fill="#71B8D9"/>
<path d="M402.324 195.978C402.324 196.648 401.744 197.298 400.604 197.938C389.804 204.028 329.664 208.688 257.114 208.688C184.564 208.688 124.394 204.028 113.634 197.938C112.494 197.298 111.894 196.648 111.894 195.978C111.894 188.958 176.914 183.258 257.104 183.258C337.294 183.258 402.314 188.958 402.314 195.978H402.324Z" fill="url(#paint7_linear_81_1208)"/>
<path d="M264.134 310.978H229.414V317.928H264.134V310.978Z" fill="#71B8D9"/>
<path d="M249.934 209.198H243.104V315.048H249.934V209.198Z" fill="#71B8D9"/>
<defs>
<linearGradient id="paint0_linear_81_1208" x1="-165.52" y1="41.1057" x2="-136.824" y2="525.179" gradientUnits="userSpaceOnUse">
<stop stop-color="#231F20" stop-opacity="0"/>
<stop offset="1" stop-color="#231F20"/>
</linearGradient>
<linearGradient id="paint1_linear_81_1208" x1="830.82" y1="199.034" x2="-845.738" y2="-48.261" gradientUnits="userSpaceOnUse">
<stop stop-color="#231F20" stop-opacity="0"/>
<stop offset="1" stop-color="#231F20"/>
</linearGradient>
<linearGradient id="paint2_linear_81_1208" x1="329.233" y1="-7.9594" x2="-8.2069" y2="682.352" gradientUnits="userSpaceOnUse">
<stop stop-color="#231F20" stop-opacity="0"/>
<stop offset="1" stop-color="#231F20"/>
</linearGradient>
<linearGradient id="paint3_linear_81_1208" x1="577.716" y1="384.812" x2="313.103" y2="-188.877" gradientUnits="userSpaceOnUse">
<stop stop-color="#231F20" stop-opacity="0"/>
<stop offset="1" stop-color="#231F20"/>
</linearGradient>
<linearGradient id="paint4_linear_81_1208" x1="25.1927" y1="201.803" x2="378.125" y2="-220.169" gradientUnits="userSpaceOnUse">
<stop stop-color="#231F20" stop-opacity="0"/>
<stop offset="1" stop-color="#231F20"/>
</linearGradient>
<linearGradient id="paint5_linear_81_1208" x1="349.822" y1="333.033" x2="-124.538" y2="117.882" gradientUnits="userSpaceOnUse">
<stop stop-color="#231F20" stop-opacity="0"/>
<stop offset="1" stop-color="#231F20"/>
</linearGradient>
<linearGradient id="paint6_linear_81_1208" x1="-0.0166274" y1="176.881" x2="482.892" y2="176.881" gradientUnits="userSpaceOnUse">
<stop stop-color="#231F20" stop-opacity="0"/>
<stop offset="1" stop-color="#231F20"/>
</linearGradient>
<linearGradient id="paint7_linear_81_1208" x1="239.118" y1="507.48" x2="612.565" y2="-247.411" gradientUnits="userSpaceOnUse">
<stop stop-color="#231F20" stop-opacity="0"/>
<stop offset="1" stop-color="#231F20"/>
</linearGradient>
</defs>
</svg>
