<svg width="477" height="416" viewBox="0 0 477 416" fill="none" xmlns="http://www.w3.org/2000/svg">
<path d="M264.239 2.51211C258.231 3.5929 252.308 5.07633 246.502 6.973C208.041 19.5186 134.964 38.9516 106.463 67.5712C73.4156 100.832 83.5554 144.604 50.3601 177.663C22.865 205.022 -0.0739884 231.798 0.00017935 273.302C0.116729 346.435 63.2865 371.844 122.345 390.271C192.328 412.066 266.75 422.101 339.72 412.141C370.659 407.923 401.894 399.807 427.132 381.455C464.894 354.032 483.044 303.681 475.204 258.139C471.22 235.029 464.258 214.145 462.362 190.41C459.883 159.47 465.106 127.714 456.015 97.4623C440.196 44.7687 384.825 13.0763 330.661 3.48694C308.75 -0.422967 286.055 -1.45077 264.228 2.51211H264.239Z" fill="#71B8D9"/>
<path d="M438.077 55.9474V330.478C438.077 340.067 430.311 347.834 420.722 347.834H56.3041C46.7153 347.834 38.9488 340.067 38.9488 330.478V61.0865C38.9488 51.4971 46.7153 43.7303 56.3041 43.7303H425.861C432.61 43.7303 438.077 49.1978 438.077 55.9474Z" fill="white"/>
<path d="M277.388 103.29H103.189V210.362H277.388V103.29Z" fill="#D7D9E1"/>
<path d="M277.388 220.63H103.189V327.702H277.388V220.63Z" fill="#D7D9E1"/>
<path d="M438.077 56.668H38.9488V56.2229C38.9488 46.6336 46.7153 38.8668 56.3041 38.8668H420.722C430.3 38.8668 438.067 46.6124 438.077 56.1911V56.668Z" fill="#71B8D9"/>
<path d="M92.7946 56.668V347.791H56.3041C46.7153 347.791 38.9488 340.025 38.9488 330.435V56.668H92.7946Z" fill="#D7D9E1"/>
<path d="M84.4878 129.981H56.3783V132.768H84.4878V129.981Z" fill="white"/>
<path d="M84.4984 121.759H49.8515V125.287H84.4984V121.759Z" fill="white"/>
<path d="M84.4878 162.892H56.3783V165.679H84.4878V162.892Z" fill="white"/>
<path d="M84.4984 154.649H49.8515V158.177H84.4984V154.649Z" fill="white"/>
<path d="M84.4878 195.793H56.3783V198.579H84.4878V195.793Z" fill="white"/>
<path d="M84.4984 187.56H49.8515V191.088H84.4984V187.56Z" fill="white"/>
<path d="M84.4878 228.682H56.3783V231.469H84.4878V228.682Z" fill="white"/>
<path d="M84.4984 220.46H49.8515V223.988H84.4984V220.46Z" fill="white"/>
<path d="M57.5332 51.6985C59.7217 51.6985 61.4958 49.9242 61.4958 47.7356C61.4958 45.547 59.7217 43.7727 57.5332 43.7727C55.3446 43.7727 53.5705 45.547 53.5705 47.7356C53.5705 49.9242 55.3446 51.6985 57.5332 51.6985Z" fill="white"/>
<path d="M71.127 51.6985C73.3156 51.6985 75.0897 49.9242 75.0897 47.7356C75.0897 45.547 73.3156 43.7727 71.127 43.7727C68.9385 43.7727 67.1644 45.547 67.1644 47.7356C67.1644 49.9242 68.9385 51.6985 71.127 51.6985Z" fill="white"/>
<path d="M84.7315 51.6985C86.9201 51.6985 88.6942 49.9242 88.6942 47.7356C88.6942 45.547 86.9201 43.7727 84.7315 43.7727C82.543 43.7727 80.7689 45.547 80.7689 47.7356C80.7689 49.9242 82.543 51.6985 84.7315 51.6985Z" fill="white"/>
<path d="M373.445 330.615C373.445 362.011 347.995 387.463 316.601 387.463C285.207 387.463 259.757 362.011 259.757 330.615C259.757 329.153 259.81 327.702 259.926 326.271C262.342 294.971 289.678 271.554 320.977 273.97C350.57 276.258 373.424 300.926 373.445 330.615Z" fill="#71B8D9"/>
<path d="M292.708 356.438C290.823 364.65 293.132 373.412 291.448 381.603C278.32 375.108 268.191 363.802 263.169 350.048C262.893 347.24 262.967 344.401 263.38 341.614C263.762 338.594 264.323 335.458 263.465 332.533C262.649 330.276 261.452 328.178 259.937 326.335C261.219 309.508 269.918 294.123 283.671 284.354C283.745 284.735 283.745 285.127 283.671 285.509L281.297 296.338C281.774 299.548 281.774 302.801 281.297 306.012C280.767 309.254 278.839 312.094 276.021 313.779C274.972 314.213 273.955 314.711 272.969 315.283C272.026 316.067 271.242 317.021 270.649 318.091C269.081 320.284 267.905 322.732 267.184 325.339C266.474 327.977 267.152 330.806 268.985 332.83L284.836 329.747C286.5 329.418 288.502 329.196 289.646 330.446C291.056 331.94 290.155 334.313 290.452 336.327C290.833 338.891 293.111 340.724 294.16 343.108C295.993 347.23 293.757 351.966 292.708 356.459V356.438Z" fill="#020202"/>
<path d="M373.445 330.615C373.467 348.035 365.478 364.501 351.788 375.267C351.004 374.748 350.337 374.08 349.818 373.296C348.112 370.721 348.673 366.663 351.418 365.211C350.464 365.72 346.703 364.48 345.579 364.311L339.731 363.399C336.923 362.965 332.049 363.145 330.407 360.337C330.216 359.945 329.994 359.564 329.75 359.214C329.4 358.864 328.987 358.589 328.542 358.387C326.783 357.529 324.717 356.554 324.325 354.647C324.028 353.238 324.728 351.638 324.018 350.43C323.795 350.038 323.446 349.731 323.213 349.349C322.704 348.173 322.863 346.827 323.605 345.789C326.063 341.476 331.18 339.389 336.075 338.562C340.971 337.736 346.046 337.842 350.824 336.464C353.833 335.596 356.683 334.133 359.798 333.656C361.515 333.413 363.655 333.254 364.28 331.633C364.63 330.721 364.28 329.662 364.651 328.74C364.789 328.348 365.054 328.009 365.202 327.617C365.605 326.388 364.937 325.074 363.719 324.671C363.56 324.618 363.401 324.586 363.242 324.565C363.634 323.495 363.973 322.128 363.125 321.376C362.532 320.941 361.759 320.814 361.059 321.047C359.025 321.567 357.542 323.283 355.825 324.491C350.199 328.528 342.38 327.098 337.622 322.351C336.849 321.672 336.309 320.782 336.044 319.786C335.895 318.059 336.859 316.417 338.449 315.707C340.006 315.039 341.68 314.711 343.376 314.732L341.479 302.356C332.028 304.888 328.192 295.882 326.836 288.401C325.491 280.921 330.799 278.25 337.654 277.752C359.279 286.377 373.467 307.326 373.445 330.615Z" fill="#020202"/>
<path d="M271.666 301.424C272.397 303.013 273.573 304.369 275.046 305.323C281.689 310.314 289.721 313.122 298.027 313.365C295.336 314.022 292.497 314.775 290.589 316.788C288.682 318.801 288.269 322.414 290.494 324.12C291.278 324.639 292.168 324.989 293.1 325.116C297.339 325.943 301.715 325.593 305.762 324.088C308.21 323.177 310.615 321.821 313.232 321.853C315.33 322.022 317.364 322.605 319.239 323.569C322.047 324.724 324.993 325.763 327.917 325.169C330.841 324.576 333.543 321.768 332.886 318.843C332.727 318.155 332.441 317.434 332.77 316.809C333.056 316.427 333.458 316.152 333.914 316.025L360.816 304.051C362.522 303.278 364.471 302.197 364.651 300.343C364.831 298.489 362.945 296.899 361.208 295.999C351.937 291.156 341.129 290.542 330.672 290.033L312.119 289.122C303.145 288.687 294.086 288.253 285.133 289.302C282.028 289.673 276.54 289.705 274.167 292.025C272.1 293.996 270.734 298.891 271.687 301.434L271.666 301.424Z" fill="#020202"/>
<path d="M339.782 203.154L338.473 203.257C337.65 203.322 337.036 204.042 337.101 204.864L337.79 213.579C337.855 214.401 338.575 215.016 339.397 214.951L340.707 214.847C341.529 214.782 342.143 214.062 342.078 213.24L341.389 204.525C341.324 203.703 340.605 203.089 339.782 203.154Z" fill="#71B8D9"/>
<path d="M330.555 199.671L331.159 203.03C331.36 204.11 332.145 204.831 332.992 204.693C336.256 204.132 344.244 203.019 349.998 204.481C353.123 205.276 356.175 206.325 359.142 207.607C360.307 208.126 361.473 206.823 361.282 205.212L359.216 187.327C359.014 185.748 357.637 184.964 356.641 185.917C352.519 189.658 342.973 197.096 332.272 197.054C331.096 197.011 330.333 198.304 330.566 199.671H330.555Z" fill="#71B8D9"/>
<path d="M360.022 207.702C362.998 207.467 365.011 202.235 364.519 196.016C364.028 189.797 361.217 184.946 358.242 185.182C355.267 185.417 353.254 190.649 353.745 196.868C354.237 203.086 357.047 207.937 360.022 207.702Z" fill="#71B8D9"/>
<path d="M295.643 220.555C289.011 221.498 273.139 258.786 277.864 267.315C282.59 275.856 308.676 285.805 308.676 285.805L307.267 271.109C307.267 271.109 289.424 263.511 290.844 258.775C292.263 254.039 302.53 236.343 302.53 236.343L295.643 220.545V220.555Z" fill="#71B8D9"/>
<path d="M338.099 219.538C338.099 218.606 344.276 221.212 344.552 221.371C348.101 223.332 351.46 225.599 354.596 228.163C357.404 230.41 360.349 232.603 363.03 235.093C365.467 237.403 368.752 240.243 368.158 243.983C367.692 246.791 364.641 248.656 361.769 248.666C358.898 248.444 356.122 247.48 353.738 245.858C348.726 242.976 343.99 239.872 339.127 236.704L338.089 219.549L338.099 219.538Z" fill="#71B8D9"/>
<path d="M336.192 219.475C341.437 219.369 345.781 223.533 345.897 228.778C345.897 228.884 345.897 229 345.897 229.106C345.897 229.106 338.947 257.482 338.862 267.008C338.862 272.221 340.504 287.808 340.504 287.808H295.506C295.506 287.808 297.582 271.522 297.54 266.054C297.455 256.772 290.102 229.106 290.102 229.106C290.028 223.861 294.234 219.538 299.479 219.475C299.564 219.475 299.648 219.475 299.733 219.475H336.192Z" fill="#71B8D9"/>
<path d="M343.958 203.369C343.344 202.5 342.507 201.811 341.543 201.356C340.621 201.08 339.646 201.08 338.735 201.356C336.213 201.949 334.083 203.623 332.929 205.944C332.685 206.41 332.558 206.929 332.547 207.459C332.59 207.989 332.727 208.497 332.95 208.974C333.819 211.178 334.974 213.657 337.262 214.304C338.481 214.452 339.699 214.547 340.918 214.569C341.723 214.696 342.475 215.003 343.28 215.141C345.304 215.512 349.373 214.124 349.521 211.581C349.595 210.33 347.985 208.656 347.317 207.681C346.215 206.177 345.134 204.746 343.958 203.348V203.369Z" fill="#FCA89E"/>
<path d="M323.573 224.804C323.255 227.019 321.274 228.608 319.049 228.418C314.577 228.206 314.249 224.804 314.249 224.804V207.056H323.573V224.804Z" fill="#FCA89E"/>
<path d="M314.196 215.83C314.196 215.83 320.034 224.932 323.52 220.555V213.435L314.196 215.83Z" fill="url(#paint0_linear_81_1293)"/>
<path d="M310.329 211.305C312.66 218.553 324.262 218.754 328.161 213.011C330.248 209.514 330.894 205.35 329.994 201.377C329.379 197.467 328.182 193.684 326.455 190.124C325.258 187.888 324.05 185.907 321.337 185.568C318.243 185.366 315.15 186.055 312.437 187.56C307.139 190.421 304.586 196.619 306.334 202.383C306.8 203.782 307.394 205.138 308.093 206.431C308.972 207.989 309.725 209.62 310.339 211.295L310.329 211.305Z" fill="#FCA89E"/>
<path d="M348.504 255.278H287.443V291.686H348.504V255.278Z" fill="#71B8D9"/>
<path d="M348.504 255.278H287.443V291.686H348.504V255.278Z" fill="#020202"/>
<path d="M313.889 311.108C312.617 312.115 311.187 312.91 309.672 313.471C306.398 314.88 299.924 317.413 300.899 320.221C302.202 324.014 306.758 323.739 309.788 322.838C314.514 321.217 319.006 319.002 323.16 316.247L313.889 311.119V311.108Z" fill="#231F20"/>
<path d="M321.719 301.212C332.801 293.127 338.597 287.151 351.036 279.585C354.003 277.784 356.027 277.254 361.165 279.257C365.541 280.973 365.075 288.497 362.68 291.633C355.518 301.042 327.928 314.033 322.344 316.004C319.949 316.851 311.441 309.688 314.895 306.277C317.057 304.443 319.335 302.748 321.719 301.212Z" fill="#231F20"/>
<path d="M316.601 316.798C318.318 319.013 320.288 321.026 322.45 322.806C326.201 325.72 328.807 326.674 331.858 325.254C336.277 323.198 332.208 318.854 328.775 315.41C326.158 312.677 323.223 310.261 320.045 308.205L316.601 316.798Z" fill="#231F20"/>
<path d="M317.163 306.16L321.899 310.081C322.874 310.875 323.711 311.818 324.378 312.888C325.914 315.696 320.596 321.619 317.131 318.176C313.666 314.732 310.572 311.045 310.572 311.045L317.152 306.149L317.163 306.16Z" fill="#FCA89E"/>
<path d="M303.071 312.337C290.187 305.853 282.283 303.522 273.997 291.855C271.889 288.878 271.041 283.961 271.857 281.535C272.874 278.558 277.229 276.756 282.378 277.975C286.68 279.013 315.626 301.688 320.151 305.959C322.09 307.802 316.156 317.01 311.293 315.421C308.464 314.637 305.709 313.609 303.071 312.327V312.337Z" fill="#231F20"/>
<path d="M329.57 189.435C329.072 190.643 328.33 191.724 327.408 192.646C325.522 194.468 323.096 195.655 320.49 196.005C316.696 196.609 312.84 196.005 309.015 195.623C308.835 196.884 307.955 197.933 306.747 198.325C307.33 200.995 308.093 203.623 309.057 206.187C310 208.688 311.346 211.03 312.363 213.477C309.216 211.295 306.737 207.586 304.491 204.577C303.272 203.146 302.287 201.525 301.598 199.777C300.888 198.007 301.089 195.994 302.117 194.394C302.647 193.864 303.071 193.25 303.378 192.561C303.484 191.968 303.484 191.364 303.378 190.77C303.283 187.93 304.48 185.197 306.641 183.342C308.803 181.541 311.325 180.238 314.048 179.528C316.379 178.712 318.869 178.437 321.316 178.744C324.855 179.348 329.104 183.258 329.856 186.786C330.015 187.676 329.919 188.598 329.57 189.435Z" fill="#231F20"/>
<path d="M307.828 206.548C307.002 206.696 306.271 207.162 305.794 207.851C305.529 208.391 305.497 209.016 305.698 209.578C305.9 210.14 306.196 210.669 306.588 211.125C306.779 211.4 307.023 211.644 307.309 211.846C307.786 212.11 308.315 212.248 308.856 212.238H310.117C310.329 212.227 310.54 212.163 310.731 212.068C310.933 211.92 311.081 211.708 311.155 211.475C311.441 210.595 311.441 209.642 311.155 208.762C310.964 207.936 310.562 207.162 309.99 206.526C309.439 206.007 308.58 206.304 307.839 206.537L307.828 206.548Z" fill="#FCA89E"/>
<path d="M354.872 241.715C355.688 243.644 356.927 245.371 358.495 246.749C361.61 249.069 366.018 248.433 368.338 245.318C369.451 243.824 369.928 241.949 369.663 240.105C369.197 238.081 368.285 236.184 367.003 234.553C361.494 226.394 355.825 218.33 349.998 210.362C348.451 211.252 342.962 213.255 342.592 215.014C342.221 216.773 345.516 222.049 346.332 223.851C347.741 226.892 349.14 229.922 350.549 232.931C351.958 235.941 353.971 238.727 354.861 241.705L354.872 241.715Z" fill="#71B8D9"/>
<path d="M339.146 210.847L337.357 211.443C336.568 211.705 336.142 212.557 336.404 213.345L336.999 215.135C337.261 215.923 338.113 216.35 338.902 216.088L340.691 215.492C341.48 215.23 341.906 214.378 341.644 213.59L341.049 211.8C340.786 211.012 339.935 210.585 339.146 210.847Z" fill="#71B8D9"/>
<path d="M461.652 147.242C461.652 155.623 455.072 162.521 446.702 162.924C446.458 162.935 446.204 162.935 445.96 162.924H349.839L341.574 182.135L332.854 162.924H200.465C193.483 162.924 187.337 158.304 185.388 151.586C184.996 150.177 184.805 148.704 184.826 147.242V89.1127C184.826 80.4664 191.819 73.4413 200.465 73.3989H445.96C454.627 73.3989 461.652 80.4241 461.652 89.0915V147.242Z" fill="#71B8D9"/>
<path d="M461.652 94.9935V147.242C461.652 155.623 455.072 162.521 446.702 162.924C446.458 162.935 446.204 162.935 445.96 162.924H349.839L341.574 182.135L332.854 162.924H200.465C193.483 162.924 187.337 158.304 185.388 151.586C184.996 150.177 184.805 148.704 184.826 147.242V94.9935H461.663H461.652Z" fill="white"/>
<path d="M214.387 114.776H361.112C363.041 114.776 364.598 116.334 364.598 118.262C364.598 120.191 363.041 121.748 361.112 121.748H214.387C212.459 121.748 210.901 120.191 210.901 118.262C210.901 116.334 212.459 114.776 214.387 114.776Z" fill="white"/>
<path d="M214.387 132.175H361.112C363.041 132.175 364.598 133.732 364.598 135.661C364.598 137.589 363.041 139.147 361.112 139.147H214.387C212.459 139.147 210.901 137.589 210.901 135.661C210.901 133.732 212.459 132.175 214.387 132.175Z" fill="white"/>
<defs>
<linearGradient id="paint0_linear_81_1293" x1="343.115" y1="-626.939" x2="83.9748" y2="1613.21" gradientUnits="userSpaceOnUse">
<stop stop-color="#231F20"/>
<stop offset="0.08" stop-color="#231F20" stop-opacity="0.69"/>
<stop offset="0.21" stop-color="#231F20" stop-opacity="0.32"/>
<stop offset="1" stop-color="#231F20" stop-opacity="0"/>
</linearGradient>
</defs>
</svg>
