<svg width="127" height="75" viewBox="0 0 127 75" fill="none" xmlns="http://www.w3.org/2000/svg">
<path d="M37.6193 0.588598H111.952C114.557 0.588598 116.635 2.69516 116.635 5.26641V52.881C116.635 55.4833 114.526 57.5589 111.952 57.5589H37.6193C35.0144 57.5589 32.9367 55.4523 32.9367 52.881V5.26641C32.9367 2.66418 35.0144 0.588598 37.6193 0.588598Z" fill="#8AB1F4"/>
<path d="M111.766 58.1475H37.8054C34.7973 58.1475 32.3475 55.7001 32.3475 52.6952V5.45229C32.3475 2.44734 34.7973 0 37.8054 0H111.766C114.774 0 117.224 2.44734 117.224 5.45229V52.6952C117.224 55.7001 114.774 58.1475 111.766 58.1475ZM37.8054 1.14622C35.4176 1.14622 33.4949 3.06692 33.4949 5.45229V52.6952C33.4949 55.0805 35.4176 57.0012 37.8054 57.0012H111.766C114.154 57.0012 116.076 55.0805 116.076 52.6952V5.45229C116.076 3.06692 114.154 1.14622 111.766 1.14622H37.8054Z" fill="#093F68"/>
<path d="M88.1667 69.8265H61.4045L64.1955 57.5898H85.3758L88.1667 69.8265Z" fill="#8AB1F4"/>
<path d="M88.1667 70.4151H61.4045C61.0944 70.4151 60.8463 70.1673 60.8463 69.8575C60.8463 69.8265 60.8463 69.7646 60.8463 69.7336L63.6373 57.4659C63.6993 57.2181 63.9164 57.0322 64.1955 57.0322H85.3758C85.6549 57.0322 85.8719 57.2181 85.934 57.4659L88.7249 69.7336C88.7559 69.8885 88.7249 70.0743 88.6009 70.1983C88.5078 70.3222 88.3528 70.4151 88.1667 70.4151ZM62.1177 69.2689H87.4535L84.9106 58.1475H64.6606L62.1177 69.2689Z" fill="#093F68"/>
<path d="M110.96 5.32838H38.6427V47.6456H110.96V5.32838Z" fill="white"/>
<path d="M110.96 48.2032H38.6427C38.3326 48.2032 38.0845 47.9554 38.0845 47.6456V5.32838C38.0845 5.01859 38.3326 4.77075 38.6427 4.77075H110.96C111.27 4.77075 111.518 5.01859 111.518 5.32838V47.6456C111.518 47.9554 111.27 48.2032 110.96 48.2032ZM39.2009 47.057H110.37V5.88599H39.2009V47.057Z" fill="#093F68"/>
<path d="M57.094 69.8265H92.5082C93.1905 69.8265 93.7486 70.3841 93.7486 71.0657V73.1722C93.7486 73.8538 93.1905 74.4114 92.5082 74.4114H57.094C56.4118 74.4114 55.8536 73.8538 55.8536 73.1722V71.0657C55.8226 70.3841 56.3808 69.8265 57.094 69.8265Z" fill="#8AB1F4"/>
<path d="M91.4539 75H58.1174C56.5358 74.938 55.2954 73.6369 55.3574 72.057C55.4194 70.539 56.6289 69.3309 58.1174 69.2999H91.4539C93.0354 69.2379 94.3689 70.4771 94.3999 72.057C94.4309 73.6369 93.2215 74.969 91.6399 75C91.5779 75 91.5159 75 91.4539 75ZM58.1174 70.4151C57.156 70.4151 56.3808 71.1896 56.3808 72.1499C56.3808 73.1103 57.156 73.8848 58.1174 73.8848H91.4539C92.4152 73.8848 93.1905 73.1103 93.1905 72.1499C93.1905 71.1896 92.4152 70.4151 91.4539 70.4151H58.1174Z" fill="#093F68"/>
<path d="M110.618 11.1834H38.9838C38.6737 11.1834 38.4256 10.9356 38.4256 10.6258C38.4256 10.316 38.6737 10.0681 38.9838 10.0681H110.618C110.929 10.0681 111.177 10.316 111.177 10.6258C111.177 10.9356 110.929 11.1834 110.618 11.1834Z" fill="#093F68"/>
<path d="M42.55 9.13878C43.1666 9.13878 43.6664 8.63947 43.6664 8.02354C43.6664 7.40761 43.1666 6.9083 42.55 6.9083C41.9334 6.9083 41.4336 7.40761 41.4336 8.02354C41.4336 8.63947 41.9334 9.13878 42.55 9.13878Z" fill="#FFBC0E"/>
<path d="M46.8605 9.13878C47.4771 9.13878 47.9769 8.63947 47.9769 8.02354C47.9769 7.40761 47.4771 6.9083 46.8605 6.9083C46.2439 6.9083 45.7441 7.40761 45.7441 8.02354C45.7441 8.63947 46.2439 9.13878 46.8605 9.13878Z" fill="#093F68"/>
<path d="M51.171 9.13878C51.7875 9.13878 52.2874 8.63947 52.2874 8.02354C52.2874 7.40761 51.7875 6.9083 51.171 6.9083C50.5544 6.9083 50.0546 7.40761 50.0546 8.02354C50.0546 8.63947 50.5544 9.13878 51.171 9.13878Z" fill="#093F68"/>
<path d="M77.7161 14.0335H46.8605V26.487H77.7161V14.0335Z" fill="#FFBC0E"/>
<path d="M77.6851 27.0446H46.8295C46.5194 27.0446 46.2713 26.7968 46.2713 26.487V14.0335C46.2713 13.7237 46.5194 13.4758 46.8295 13.4758H77.6851C77.9952 13.4758 78.2433 13.7237 78.2433 14.0335V26.487C78.2743 26.7968 77.9952 27.0446 77.6851 27.0446ZM47.4187 25.8984H77.1269V14.5911H47.4187V25.8984Z" fill="#093F68"/>
<path d="M46.8605 27.0446C46.5504 27.0446 46.3023 26.7968 46.3023 26.487C46.3023 26.3321 46.3643 26.1462 46.5194 26.0533L56.6289 17.7509C56.8459 17.5651 57.156 17.5651 57.3731 17.7509L65.4359 24.4424C65.684 24.6592 65.715 25 65.4979 25.2478C65.2808 25.4957 64.9397 25.5266 64.6916 25.3098L57.001 18.8971L47.2326 26.9207C47.1086 27.0136 46.9845 27.0446 46.8605 27.0446Z" fill="#093F68"/>
<path d="M77.6851 27.0446C77.5611 27.0446 77.437 27.0136 77.344 26.9207L68.2269 19.7026L63.6063 23.7918C63.3582 24.0087 63.0171 23.9777 62.8 23.7299C62.5829 23.482 62.6139 23.1413 62.862 22.9244L67.8547 18.5254C68.0718 18.3395 68.3819 18.3395 68.599 18.4944L78.0882 26.0223C78.3363 26.2082 78.3673 26.5799 78.1813 26.8278C78.0262 26.9826 77.8712 27.0446 77.6851 27.0446Z" fill="#093F68"/>
<path d="M101.346 15.1797H83.6392C83.329 15.1797 83.081 14.9318 83.081 14.6221C83.081 14.3123 83.329 14.0644 83.6392 14.0644H101.315C101.625 14.0644 101.873 14.3123 101.873 14.6221C101.935 14.9009 101.656 15.1487 101.346 15.1797Z" fill="#DFEAEF"/>
<path d="M101.346 20.1983H83.6392C83.329 20.1983 83.081 19.9504 83.081 19.6406C83.081 19.3309 83.329 19.083 83.6392 19.083H101.315C101.625 19.083 101.873 19.3309 101.873 19.6406C101.935 19.9504 101.656 20.1983 101.346 20.1983Z" fill="#DFEAEF"/>
<path d="M97.594 25.2478H83.6702C83.3601 25.2478 83.112 25 83.112 24.6902C83.112 24.3804 83.3601 24.1326 83.6702 24.1326H97.594C97.9041 24.1326 98.1522 24.3804 98.1522 24.6902C98.1522 24.969 97.9041 25.2478 97.594 25.2478Z" fill="#DFEAEF"/>
<path d="M60.009 30.6382H46.8605V39.8699H60.009V30.6382Z" fill="#70CC40"/>
<path d="M60.009 40.4275H46.8605C46.5504 40.4275 46.3023 40.1797 46.3023 39.8699V30.6382C46.3023 30.3284 46.5504 30.0805 46.8605 30.0805H60.009C60.3191 30.0805 60.5672 30.3284 60.5672 30.6382V39.8699C60.5672 40.1797 60.3191 40.4275 60.009 40.4275ZM47.4187 39.2813H59.4198V31.1958H47.4187V39.2813Z" fill="#093F68"/>
<path d="M81.1583 30.6382H68.0098V39.8699H81.1583V30.6382Z" fill="#70CC40"/>
<path d="M81.1893 40.4275H68.0098C67.6997 40.4275 67.4516 40.1797 67.4516 39.8699V30.6382C67.4516 30.3284 67.6997 30.0805 68.0098 30.0805H81.1583C81.4684 30.0805 81.7165 30.3284 81.7165 30.6382V39.8699C81.7475 40.1797 81.4994 40.4275 81.1893 40.4275ZM68.599 39.2813H80.6001V31.1958H68.599V39.2813Z" fill="#093F68"/>
<path d="M102.339 30.6382H89.1901V39.8699H102.339V30.6382Z" fill="#70CC40"/>
<path d="M102.339 40.4275H89.1901C88.88 40.4275 88.6319 40.1797 88.6319 39.8699V30.6382C88.6319 30.3284 88.88 30.0805 89.1901 30.0805H102.339C102.649 30.0805 102.897 30.3284 102.897 30.6382V39.8699C102.928 40.1797 102.649 40.4275 102.339 40.4275ZM89.7483 39.2813H101.749V31.1958H89.7483V39.2813Z" fill="#093F68"/>
<path d="M56.2567 44.7336H50.5818C50.2717 44.7336 50.0236 44.4857 50.0236 44.1759C50.0236 43.8662 50.2717 43.6183 50.5818 43.6183H56.2567C56.5668 43.6183 56.8149 43.8662 56.8149 44.1759C56.8149 44.4857 56.5668 44.7336 56.2567 44.7336Z" fill="#DFEAEF"/>
<path d="M77.437 44.7336H71.7621C71.452 44.7336 71.2039 44.4857 71.2039 44.1759C71.2039 43.8662 71.452 43.6183 71.7621 43.6183H77.437C77.7471 43.6183 77.9952 43.8662 77.9952 44.1759C77.9952 44.4857 77.7471 44.7336 77.437 44.7336Z" fill="#DFEAEF"/>
<path d="M98.5863 44.7336H92.9113C92.6012 44.7336 92.3532 44.4857 92.3532 44.1759C92.3532 43.8662 92.6012 43.6183 92.9113 43.6183H98.5863C98.8964 43.6183 99.1445 43.8662 99.1445 44.1759C99.1755 44.4857 98.9274 44.7336 98.5863 44.7336Z" fill="#DFEAEF"/>
<path d="M6.11245 16.3879H40.2862C41.1855 16.3879 41.9298 17.1313 41.9298 18.0297V72.7695C41.9298 73.6679 41.1855 74.4114 40.2862 74.4114H6.11245C5.21314 74.4114 4.46888 73.6679 4.46888 72.7695V18.0297C4.46888 17.1313 5.18213 16.3879 6.11245 16.3879Z" fill="#8AB1F4"/>
<path d="M38.8908 75H7.50793C5.52325 75 3.91069 73.3891 3.91069 71.4064V19.4238C3.91069 17.4411 5.52325 15.8302 7.50793 15.8302H38.8908C40.8754 15.8302 42.488 17.4411 42.488 19.4238V71.4064C42.488 73.3891 40.8754 75 38.8908 75ZM7.50793 16.9455C6.14346 16.9455 5.02708 18.0607 5.02708 19.4238V71.3754C5.02708 72.7385 6.14346 73.8538 7.50793 73.8538H38.8908C40.2552 73.8538 41.3716 72.7385 41.3716 71.3754V19.4238C41.3716 18.0607 40.2552 16.9455 38.8908 16.9455H7.50793Z" fill="#093F68"/>
<path d="M8.40724 24.0706H37.9914C38.4256 24.0706 38.7977 24.4114 38.7977 24.8761V64.9938C38.7977 65.4275 38.4566 65.7992 37.9914 65.7992H8.40724C7.97309 65.7992 7.60096 65.4585 7.60096 64.9938V24.8761C7.60096 24.4424 7.97309 24.0706 8.40724 24.0706Z" fill="white"/>
<path d="M37.3092 66.3569H9.08948C7.97309 66.3569 7.07378 65.4585 7.04277 64.3432V25.5576C7.04277 24.4424 7.94208 23.544 9.08948 23.513H37.3092C38.4256 23.513 39.3249 24.4114 39.3559 25.5576V64.3432C39.3249 65.4585 38.4256 66.3569 37.3092 66.3569ZM9.08948 24.6592C8.59331 24.6592 8.19017 25.062 8.19017 25.5576V64.3432C8.19017 64.8389 8.59331 65.2416 9.08948 65.2416H37.3092C37.8054 65.2416 38.2085 64.8389 38.2085 64.3432V25.5576C38.2085 25.062 37.8054 24.6592 37.3092 24.6592H9.08948Z" fill="#093F68"/>
<path d="M18.3617 20.1053C18.6357 20.1053 18.8578 19.8834 18.8578 19.6097C18.8578 19.3359 18.6357 19.114 18.3617 19.114C18.0876 19.114 17.8655 19.3359 17.8655 19.6097C17.8655 19.8834 18.0876 20.1053 18.3617 20.1053Z" fill="#093F68"/>
<path d="M28.5332 20.1983H20.7185C20.4084 20.1673 20.1603 19.8885 20.1913 19.5787C20.2223 19.2999 20.4394 19.083 20.7185 19.052H28.5332C28.8433 19.0211 29.1224 19.2689 29.1534 19.5787C29.1844 19.8885 28.9363 20.1673 28.6262 20.1983C28.5642 20.1983 28.5642 20.1983 28.5332 20.1983Z" fill="#093F68"/>
<path d="M23.1993 72.8934C24.3297 72.8934 25.246 71.978 25.246 70.8488C25.246 69.7196 24.3297 68.8042 23.1993 68.8042C22.069 68.8042 21.1526 69.7196 21.1526 70.8488C21.1526 71.978 22.069 72.8934 23.1993 72.8934Z" fill="#093F68"/>
<path d="M35.0454 28.5626H11.3843V43.4634H35.0454V28.5626Z" fill="#F56132"/>
<path d="M35.0454 44.0211H11.3843C11.0742 44.0211 10.8261 43.7732 10.8261 43.4634V28.5626C10.8261 28.2528 11.0742 28.005 11.3843 28.005H35.0454C35.3555 28.005 35.6036 28.2528 35.6036 28.5626V43.4634C35.6036 43.7732 35.3555 44.0211 35.0454 44.0211ZM11.9735 42.8748H34.4872V29.1512H11.9735V42.8748Z" fill="#093F68"/>
<path d="M13.7101 56.7534H32.7506C34.0221 56.7534 35.0764 57.7757 35.0764 59.0768V59.4176C35.0764 60.6877 34.0531 61.741 32.7506 61.741H13.7101C12.4386 61.741 11.3843 60.7187 11.3843 59.4176V59.0768C11.3843 57.8067 12.4386 56.7534 13.7101 56.7534Z" fill="#70CC40"/>
<path d="M32.5646 62.2986H13.8651C12.1905 62.2367 10.8571 60.8426 10.9191 59.1388C10.9811 57.5279 12.2526 56.2267 13.8651 56.1958H32.5646C34.2391 56.2577 35.5726 57.6518 35.5106 59.3556C35.4796 60.9665 34.1771 62.2367 32.5646 62.2986ZM13.8651 57.342C12.8108 57.311 11.9114 58.1165 11.8804 59.1698C11.8494 60.223 12.6557 61.1214 13.7101 61.1524C13.7721 61.1524 13.8031 61.1524 13.8651 61.1524H32.5646C33.6189 61.1834 34.5182 60.3779 34.5492 59.3246C34.5803 58.2714 33.774 57.373 32.7196 57.342C32.6576 57.342 32.6266 57.342 32.5646 57.342H13.8651Z" fill="#093F68"/>
<path d="M35.0454 48.2032H11.3843C11.0742 48.2032 10.8261 47.9554 10.8261 47.6456C10.8261 47.3358 11.0742 47.088 11.3843 47.088H35.0454C35.3555 47.088 35.6036 47.3358 35.6036 47.6456C35.6346 47.9554 35.3555 48.2032 35.0454 48.2032Z" fill="#DFEAEF"/>
<path d="M29.7426 52.7571H11.3843C11.0742 52.7571 10.8261 52.5093 10.8261 52.1995C10.8261 51.8897 11.0742 51.6419 11.3843 51.6419H29.7116C30.0217 51.6419 30.2698 51.8897 30.2698 52.1995C30.3008 52.5093 30.0527 52.7571 29.7426 52.7571Z" fill="#DFEAEF"/>
<path d="M27.2927 42.0384C27.1377 42.0384 26.9826 41.9765 26.8586 41.8525L19.7261 33.6431L12.1595 41.5427C11.9425 41.7596 11.5703 41.7596 11.3533 41.5427C11.1362 41.3259 11.1362 40.9851 11.3222 40.7683L19.292 32.4349C19.416 32.311 19.5711 32.2491 19.7261 32.2491C19.8812 32.2491 20.0362 32.342 20.1293 32.4349L27.6649 41.109C27.882 41.3569 27.8509 41.6976 27.6029 41.9145C27.5408 41.9765 27.4168 42.0384 27.2927 42.0384Z" fill="#093F68"/>
<path d="M35.0454 40.4895C34.9214 40.4895 34.7663 40.4275 34.6733 40.3656L29.7426 36.1834L25.9593 39.9009C25.7422 40.1177 25.3701 40.1487 25.153 39.9318C24.9359 39.715 24.9049 39.3432 25.122 39.1264L25.153 39.0954L29.3395 35.0372C29.5565 34.8203 29.8976 34.8203 30.1147 35.0062L35.4175 39.4981C35.6656 39.715 35.6966 40.0558 35.4796 40.3036C35.3865 40.4275 35.2005 40.5204 35.0454 40.4895Z" fill="#093F68"/>
<path d="M0.530527 75C0.251431 75 0.0343562 74.7831 0.00334554 74.5353C-0.0276651 74.2255 0.158398 73.9157 0.499516 73.8538C1.08872 73.7299 94.896 73.8228 123.643 73.8538C123.953 73.8538 124.201 74.1016 124.201 74.4114C124.201 74.7212 123.953 74.969 123.643 74.969C122.434 74.969 2.32915 74.8451 0.654569 74.969C0.592548 75 0.561538 75 0.530527 75Z" fill="#093F68"/>
<path d="M104.54 45.4151H122.775C123.24 45.4151 123.612 45.7869 123.612 46.2515V59.7584C123.612 60.223 123.24 60.5948 122.775 60.5948H104.54C104.075 60.5948 103.703 60.223 103.703 59.7584V46.2515C103.703 45.7869 104.075 45.4151 104.54 45.4151Z" fill="white"/>
<path d="M122.061 61.1834H105.254C104.075 61.1834 103.145 60.223 103.145 59.0768V46.9641C103.145 45.7869 104.106 44.8575 105.254 44.8575H122.061C123.24 44.8575 124.17 45.8178 124.17 46.9641V59.0768C124.201 60.223 123.24 61.1834 122.061 61.1834ZM105.254 45.9727C104.726 45.9727 104.261 46.4064 104.261 46.9641V59.0768C104.261 59.6035 104.695 60.0681 105.254 60.0681H122.061C122.589 60.0681 123.023 59.6344 123.023 59.0768V46.9641C123.023 46.4374 122.589 45.9727 122.061 45.9727H105.254Z" fill="#093F68"/>
<path d="M120.17 50.031H107.952C107.641 50.031 107.393 49.7831 107.393 49.4734C107.393 49.1636 107.641 48.9157 107.952 48.9157H120.17C120.48 48.9157 120.728 49.1636 120.728 49.4734C120.728 49.7522 120.48 50.031 120.17 50.031Z" fill="#DFEAEF"/>
<path d="M120.17 53.5626H107.952C107.641 53.5626 107.393 53.3147 107.393 53.0049C107.393 52.6952 107.641 52.4473 107.952 52.4473H120.17C120.48 52.4473 120.728 52.6952 120.728 53.0049C120.728 53.3147 120.48 53.5626 120.17 53.5626Z" fill="#DFEAEF"/>
<path d="M116.821 57.1251H107.952C107.641 57.1561 107.362 56.9083 107.331 56.5985C107.3 56.2887 107.548 56.0099 107.859 55.9789C107.89 55.9789 107.921 55.9789 107.952 55.9789H116.821C117.131 55.948 117.41 56.1958 117.441 56.5056C117.472 56.8154 117.224 57.0942 116.914 57.1251C116.883 57.1251 116.852 57.1251 116.821 57.1251Z" fill="#DFEAEF"/>
<path d="M126.434 57.8996L119.456 64.8389L115.487 53.9343L126.434 57.8996Z" fill="white"/>
<path d="M119.456 65.4275C119.425 65.4275 119.363 65.4275 119.332 65.4275C119.146 65.3965 118.991 65.2416 118.929 65.0557L114.991 54.1512C114.929 53.9343 114.96 53.7175 115.115 53.5626C115.27 53.4077 115.518 53.3457 115.704 53.4386L126.62 57.342C126.806 57.404 126.93 57.5588 126.992 57.7447C127.023 57.9306 126.961 58.1474 126.837 58.2714L119.86 65.2416C119.767 65.3655 119.612 65.4275 119.456 65.4275ZM116.448 54.8947L119.674 63.8166L125.38 58.1474L116.448 54.8947Z" fill="#093F68"/>
<path d="M125.287 64.2813C125.131 64.2813 124.976 64.2193 124.883 64.1264L122.527 61.772C122.309 61.5551 122.34 61.1834 122.558 60.9665C122.775 60.7807 123.116 60.7807 123.333 60.9665L125.69 63.3209C125.907 63.5378 125.907 63.9095 125.69 64.1264C125.566 64.2193 125.442 64.2813 125.287 64.2813Z" fill="#093F68"/>
</svg>
