<svg width="111" height="111" viewBox="0 0 111 111" fill="none" xmlns="http://www.w3.org/2000/svg">
<path d="M110.355 55.3C110.355 85.715 85.715 110.355 55.3 110.355C24.885 110.355 0.244998 85.715 0.244998 55.3C0.244998 24.885 24.885 0.244998 55.3 0.244998C85.61 0.174998 110.25 24.675 110.355 54.985C110.355 55.09 110.355 55.195 110.355 55.3Z" fill="white"/>
<path d="M55.3 110.6C24.745 110.6 0 85.855 0 55.3C0 24.815 24.815 0 55.3 0C85.785 0 110.6 24.815 110.6 55.3C110.6 85.855 85.855 110.6 55.3 110.6ZM55.3 0.490001C25.095 0.490001 0.490001 25.06 0.490001 55.3C0.490001 85.575 25.025 110.11 55.3 110.11C85.575 110.11 110.11 85.575 110.11 55.3C110.11 25.095 85.505 0.490001 55.3 0.490001Z" fill="#231F20"/>
<path d="M30.52 39.165C30.38 39.165 30.275 39.06 30.275 38.92V37.345C30.275 37.205 30.38 37.1 30.52 37.1C30.66 37.1 30.765 37.205 30.765 37.345V38.92C30.765 39.06 30.66 39.165 30.52 39.165Z" fill="#D1D3D4"/>
<path d="M30.52 42.42C30.38 42.42 30.275 42.315 30.275 42.175V40.6C30.275 40.46 30.38 40.355 30.52 40.355C30.66 40.355 30.765 40.46 30.765 40.6V42.175C30.765 42.315 30.66 42.42 30.52 42.42Z" fill="#D1D3D4"/>
<path d="M32.935 40.005H31.36C31.22 40.005 31.115 39.9 31.115 39.76C31.115 39.62 31.22 39.515 31.36 39.515H32.935C33.075 39.515 33.18 39.62 33.18 39.76C33.18 39.9 33.075 40.005 32.935 40.005Z" fill="#D1D3D4"/>
<path d="M29.68 40.005H28.105C27.965 40.005 27.86 39.9 27.86 39.76C27.86 39.62 27.965 39.515 28.105 39.515H29.68C29.82 39.515 29.925 39.62 29.925 39.76C29.925 39.9 29.82 40.005 29.68 40.005Z" fill="#D1D3D4"/>
<path d="M15.435 45.605C15.295 45.605 15.19 45.5 15.19 45.36V43.785C15.19 43.645 15.295 43.54 15.435 43.54C15.575 43.54 15.68 43.645 15.68 43.785V45.36C15.68 45.5 15.575 45.605 15.435 45.605Z" fill="#D1D3D4"/>
<path d="M15.435 48.895C15.295 48.895 15.19 48.79 15.19 48.65V47.075C15.19 46.935 15.295 46.83 15.435 46.83C15.575 46.83 15.68 46.935 15.68 47.075V48.65C15.68 48.79 15.54 48.895 15.435 48.895Z" fill="#D1D3D4"/>
<path d="M17.85 46.48H16.275C16.135 46.48 16.03 46.375 16.03 46.235C16.03 46.095 16.135 45.99 16.275 45.99H17.85C17.99 45.99 18.095 46.095 18.095 46.235C18.095 46.375 17.99 46.48 17.85 46.48Z" fill="#D1D3D4"/>
<path d="M14.56 46.48H12.985C12.845 46.48 12.74 46.375 12.74 46.235C12.74 46.095 12.845 45.99 12.985 45.99H14.56C14.7 45.99 14.805 46.095 14.805 46.235C14.805 46.375 14.7 46.48 14.56 46.48Z" fill="#D1D3D4"/>
<path d="M78.89 34.86C78.75 34.86 78.645 34.755 78.645 34.615V33.04C78.645 32.9 78.75 32.795 78.89 32.795C79.03 32.795 79.135 32.9 79.135 33.04V34.615C79.135 34.72 79.03 34.825 78.89 34.86Z" fill="#D1D3D4"/>
<path d="M78.89 38.115C78.75 38.115 78.645 38.01 78.645 37.87V36.295C78.645 36.155 78.75 36.05 78.89 36.05C79.03 36.05 79.135 36.155 79.135 36.295V37.87C79.135 38.01 79.03 38.115 78.89 38.115Z" fill="#D1D3D4"/>
<path d="M81.305 35.7H79.73C79.59 35.7 79.485 35.595 79.485 35.455C79.485 35.315 79.59 35.21 79.73 35.21H81.305C81.445 35.21 81.55 35.315 81.55 35.455C81.55 35.595 81.445 35.7 81.305 35.7Z" fill="#D1D3D4"/>
<path d="M78.05 35.7H76.475C76.335 35.7 76.23 35.595 76.23 35.455C76.23 35.315 76.335 35.21 76.475 35.21H78.05C78.19 35.21 78.295 35.315 78.295 35.455C78.295 35.595 78.19 35.7 78.05 35.7Z" fill="#D1D3D4"/>
<path d="M96.565 43.995C96.425 43.995 96.32 43.89 96.32 43.75V42.175C96.32 42.035 96.425 41.93 96.565 41.93C96.705 41.93 96.81 42.035 96.81 42.175V43.75C96.81 43.89 96.67 43.995 96.565 43.995Z" fill="#D1D3D4"/>
<path d="M96.565 47.25C96.425 47.25 96.32 47.145 96.32 47.005V45.43C96.32 45.29 96.425 45.185 96.565 45.185C96.705 45.185 96.81 45.29 96.81 45.43V47.005C96.81 47.145 96.705 47.25 96.565 47.25Z" fill="#D1D3D4"/>
<path d="M98.98 44.835H97.405C97.265 44.835 97.16 44.73 97.16 44.59C97.16 44.45 97.265 44.345 97.405 44.345H98.98C99.12 44.345 99.225 44.45 99.225 44.59C99.225 44.73 99.12 44.835 98.98 44.835Z" fill="#D1D3D4"/>
<path d="M95.69 44.835H94.15C94.01 44.835 93.905 44.73 93.905 44.59C93.905 44.45 94.01 44.345 94.15 44.345H95.725C95.865 44.345 95.97 44.45 95.97 44.59C95.97 44.73 95.83 44.835 95.69 44.835Z" fill="#D1D3D4"/>
<path d="M85.365 20.055C85.225 20.055 85.12 19.95 85.12 19.81V18.235C85.12 18.095 85.225 17.99 85.365 17.99C85.505 17.99 85.61 18.095 85.61 18.235V19.81C85.575 19.95 85.47 20.055 85.365 20.055Z" fill="#D1D3D4"/>
<path d="M85.365 23.31C85.225 23.31 85.12 23.205 85.12 23.065V21.49C85.12 21.35 85.225 21.245 85.365 21.245C85.505 21.245 85.61 21.35 85.61 21.49V23.065C85.575 23.24 85.47 23.31 85.365 23.31Z" fill="#D1D3D4"/>
<path d="M87.745 20.93H86.17C86.03 20.93 85.925 20.825 85.925 20.685C85.925 20.545 86.03 20.44 86.17 20.44H87.745C87.885 20.44 87.99 20.545 87.99 20.685C87.99 20.825 87.885 20.895 87.745 20.93Z" fill="#D1D3D4"/>
<path d="M84.49 20.93H82.95C82.81 20.93 82.705 20.825 82.705 20.685C82.705 20.545 82.81 20.44 82.95 20.44H84.525C84.665 20.44 84.77 20.545 84.77 20.685C84.77 20.825 84.665 20.895 84.49 20.93C84.525 20.93 84.525 20.93 84.49 20.93Z" fill="#D1D3D4"/>
<path d="M28.105 27.44C24.36 27.44 21.35 24.43 21.35 20.685C21.35 16.94 24.36 13.93 28.105 13.93C31.85 13.93 34.86 16.94 34.86 20.685C34.86 24.395 31.85 27.405 28.105 27.44ZM28.105 14.385C24.64 14.385 21.84 17.185 21.84 20.65C21.84 24.115 24.64 26.915 28.105 26.915C31.57 26.915 34.37 24.115 34.37 20.65C34.37 17.22 31.57 14.385 28.105 14.385Z" fill="#D1D3D4"/>
<path d="M64.68 91.7C64.61 91.7 64.575 91.665 64.54 91.665C64.435 91.595 64.4 91.42 64.505 91.315C64.61 91.07 64.715 90.79 64.82 90.51C65.59 88.27 67.69 82.39 72.31 83.265C72.625 82.145 74.06 77.49 77.945 75.775C80.465 74.69 83.44 75.075 86.8 76.895C87.045 75.39 88.305 69.44 93.205 65.87C97.02 63.07 102.13 62.335 108.36 63.63C108.5 63.665 108.57 63.77 108.535 63.91C108.5 64.05 108.395 64.12 108.255 64.085C102.165 62.825 97.195 63.56 93.485 66.255C88.025 70.245 87.22 77.245 87.22 77.315C87.22 77.385 87.15 77.455 87.08 77.49C87.01 77.525 86.905 77.525 86.835 77.49C83.475 75.565 80.535 75.145 78.085 76.195C73.99 77.98 72.66 83.545 72.66 83.58C72.66 83.65 72.59 83.685 72.555 83.72C72.485 83.755 72.45 83.755 72.38 83.755C68.005 82.74 66.045 88.27 65.205 90.615C65.1 90.93 64.995 91.28 64.82 91.56C64.82 91.665 64.75 91.7 64.68 91.7Z" fill="#D1D3D4"/>
<path d="M44.065 97.3C43.89 97.3 43.82 97.16 43.82 97.02C43.82 96.915 44.94 87.045 40.46 82.915C38.64 81.235 36.085 80.71 32.9 81.34C32.83 81.34 32.76 81.34 32.69 81.305C32.62 81.27 32.585 81.2 32.585 81.13C32.585 81.025 32.27 71.855 26.46 67.935C23.065 65.66 18.445 65.59 12.74 67.76C12.67 67.795 12.565 67.76 12.495 67.725C12.425 67.655 12.39 67.585 12.425 67.48C12.425 67.445 13.3 63.42 11.095 61.285C9.555 59.815 6.895 59.535 3.185 60.515C3.045 60.55 2.905 60.48 2.905 60.34C2.87 60.2 2.94 60.06 3.08 60.025C6.965 59.01 9.8 59.29 11.48 60.9C13.475 62.825 13.23 65.975 13.055 67.13C18.725 65.065 23.345 65.17 26.81 67.48C29.96 69.58 31.535 73.185 32.27 75.81C32.725 77.42 33.005 79.1 33.11 80.78C36.33 80.185 38.92 80.78 40.81 82.53C45.5 86.835 44.38 96.635 44.345 97.055C44.275 97.195 44.17 97.3 44.065 97.3Z" fill="#D1D3D4"/>
<path d="M85.365 87.045C85.225 87.045 85.12 86.94 85.12 86.835C85.12 86.66 84.805 82.075 88.06 78.89C90.475 76.545 94.15 75.6 99.015 76.125C99.155 76.125 99.26 76.265 99.225 76.405C99.225 76.545 99.085 76.65 98.98 76.615C94.255 76.125 90.72 77 88.41 79.24C85.295 82.25 85.61 86.73 85.61 86.8C85.61 86.905 85.505 87.01 85.365 87.045Z" fill="#D1D3D4"/>
<path d="M20.055 77.595C19.95 77.595 19.88 77.525 19.845 77.455C13.93 65.205 5.355 69.055 5.25 69.09C5.11 69.16 4.97 69.09 4.935 68.985C4.865 68.845 4.935 68.705 5.04 68.67C5.145 68.635 14.175 64.575 20.265 77.28C20.335 77.385 20.265 77.56 20.16 77.595C20.125 77.595 20.09 77.595 20.055 77.595Z" fill="#D1D3D4"/>
<path d="M66.22 98.84H44.38L50.085 65.45H60.515L66.22 98.84Z" fill="white"/>
<path d="M66.22 99.085H44.345C44.275 99.085 44.205 99.05 44.17 99.015C44.135 98.945 44.1 98.875 44.135 98.805L49.875 65.415C49.91 65.31 49.98 65.205 50.12 65.205H60.515C60.62 65.205 60.725 65.275 60.76 65.415L66.5 98.805C66.5 98.875 66.5 98.945 66.465 99.015C66.36 99.05 66.29 99.085 66.22 99.085ZM44.66 98.595H65.94L60.305 65.695H50.33L44.66 98.595Z" fill="#231F20"/>
<path d="M56.56 78.75C56.42 78.75 56.315 78.645 56.315 78.54L55.825 72.275C55.825 72.135 55.93 72.03 56.035 71.995C56.175 71.995 56.28 72.065 56.28 72.205L56.77 78.47C56.805 78.61 56.7 78.75 56.56 78.75Z" fill="#231F20"/>
<path d="M51.52 82.39C51.345 82.355 51.275 82.25 51.275 82.11L52.115 75.495C52.115 75.355 52.255 75.25 52.395 75.285C52.535 75.285 52.64 75.425 52.605 75.565L51.765 82.18C51.73 82.285 51.625 82.39 51.52 82.39Z" fill="#231F20"/>
<path d="M59.605 83.79C59.5 83.79 59.395 83.685 59.36 83.58L58.485 78.19C58.45 78.05 58.555 77.945 58.695 77.91C58.835 77.875 58.94 77.98 58.975 78.12L59.885 83.51C59.92 83.65 59.815 83.755 59.675 83.79H59.605Z" fill="#231F20"/>
<path d="M60.795 70.735H49.525L48.16 65.31H62.16L60.795 70.735Z" fill="white"/>
<path d="M60.795 71.015H49.49C49.385 71.015 49.28 70.945 49.245 70.84L47.88 65.415C47.88 65.345 47.88 65.275 47.915 65.205C47.95 65.135 48.02 65.1 48.125 65.1H62.125C62.195 65.1 62.265 65.135 62.335 65.205C62.37 65.275 62.405 65.345 62.37 65.415L61.005 70.84C61.005 70.91 60.935 70.98 60.795 71.015ZM49.7 70.525H60.62L61.845 65.59H48.475L49.7 70.525Z" fill="#231F20"/>
<path d="M42.49 48.405C42.49 48.405 36.575 52.115 34.51 58.275C32.445 64.435 37.135 76.37 37.135 76.37L47.915 64.68L42.49 48.405Z" fill="white"/>
<path d="M37.17 76.58H37.1C37.03 76.58 36.96 76.51 36.925 76.44C36.715 75.95 32.235 64.365 34.3 58.205C36.365 52.045 42.315 48.265 42.385 48.195C42.455 48.16 42.525 48.16 42.595 48.16C42.665 48.195 42.735 48.23 42.735 48.3L48.16 64.575C48.195 64.645 48.16 64.75 48.125 64.82L37.38 76.475C37.31 76.545 37.24 76.58 37.17 76.58ZM42.385 48.79C41.23 49.595 36.54 53.06 34.755 58.345C32.97 63.77 36.47 73.85 37.24 75.88L47.635 64.61L42.385 48.79Z" fill="#231F20"/>
<path d="M68.11 48.405C68.11 48.405 74.025 52.115 76.09 58.275C78.155 64.435 73.465 76.37 73.465 76.37L62.685 64.68L68.11 48.405Z" fill="white"/>
<path d="M73.43 76.58C73.36 76.58 73.29 76.545 73.255 76.51L62.475 64.82C62.405 64.75 62.405 64.645 62.44 64.575L67.865 48.3C67.9 48.23 67.935 48.16 68.005 48.16C68.075 48.125 68.145 48.16 68.215 48.195C68.285 48.23 74.235 52.01 76.3 58.205C78.365 64.4 73.85 75.985 73.675 76.44C73.64 76.51 73.57 76.58 73.5 76.58H73.43ZM62.93 64.61L73.325 75.88C74.095 73.815 77.63 63.735 75.81 58.345C74.06 53.06 69.37 49.595 68.18 48.79L62.93 64.61Z" fill="#231F20"/>
<path d="M64.82 67.375C67.76 60.34 69.615 50.12 69.615 38.78C69.615 21.56 60.13 12.6 56.525 9.835C55.72 9.205 54.6 9.205 53.795 9.835C50.19 12.635 40.705 21.595 40.705 38.78C40.705 50.12 42.56 60.34 45.5 67.375C45.5 67.375 48.44 68.845 55.16 68.845C61.88 68.845 64.82 67.375 64.82 67.375Z" fill="#8AB1F4"/>
<path d="M53.795 9.835C49.385 13.37 45.92 17.955 43.75 23.17H66.605C64.435 17.955 60.97 13.37 56.525 9.835C55.755 9.205 54.6 9.205 53.795 9.835Z" fill="white"/>
<path d="M66.605 23.415H43.75C43.68 23.415 43.575 23.38 43.54 23.31C43.505 23.24 43.47 23.17 43.505 23.065C45.71 17.815 49.175 13.16 53.655 9.625C54.565 8.925 55.79 8.925 56.7 9.625C61.18 13.16 64.645 17.78 66.85 23.065C66.885 23.135 66.885 23.24 66.815 23.31C66.78 23.38 66.675 23.415 66.605 23.415ZM44.1 22.925H66.22C64.05 17.885 60.69 13.44 56.385 10.045C55.65 9.485 54.67 9.485 53.935 10.045C49.63 13.44 46.27 17.85 44.1 22.925Z" fill="#231F20"/>
<path d="M55.72 44.765C60.5911 44.765 64.54 40.8162 64.54 35.945C64.54 31.0738 60.5911 27.125 55.72 27.125C50.8488 27.125 46.9 31.0738 46.9 35.945C46.9 40.8162 50.8488 44.765 55.72 44.765Z" fill="white"/>
<path d="M55.72 45.01C50.715 45.01 46.655 40.95 46.655 35.945C46.655 30.94 50.715 26.88 55.72 26.88C60.725 26.88 64.785 30.94 64.785 35.945C64.785 40.95 60.725 45.01 55.72 45.01ZM55.72 27.37C50.995 27.37 47.145 31.22 47.145 35.945C47.145 40.67 50.995 44.52 55.72 44.52C60.445 44.52 64.295 40.67 64.295 35.945C64.295 31.22 60.48 27.37 55.72 27.37Z" fill="#231F20"/>
<path d="M55.72 41.405C58.7355 41.405 61.18 38.9605 61.18 35.945C61.18 32.9295 58.7355 30.485 55.72 30.485C52.7045 30.485 50.26 32.9295 50.26 35.945C50.26 38.9605 52.7045 41.405 55.72 41.405Z" fill="#231F20"/>
<path d="M55.72 41.65C52.57 41.65 50.05 39.095 50.05 35.945C50.05 32.795 52.605 30.275 55.755 30.275C58.905 30.275 61.425 32.83 61.425 35.945C61.425 39.095 58.87 41.65 55.72 41.65ZM55.72 30.765C52.85 30.765 50.54 33.11 50.54 35.98C50.54 38.85 52.885 41.16 55.755 41.16C58.625 41.16 60.935 38.815 60.935 35.98C60.935 33.075 58.59 30.765 55.72 30.765Z" fill="#231F20"/>
<path d="M60.06 35.7C59.955 35.7 59.85 35.595 59.815 35.49C59.255 31.675 55.895 31.85 55.755 31.85C55.615 31.85 55.51 31.745 55.51 31.64C55.51 31.5 55.615 31.395 55.72 31.395C55.755 31.395 59.675 31.185 60.305 35.455C60.305 35.56 60.235 35.665 60.06 35.7Z" fill="white"/>
<path d="M53.83 32.375C53.76 32.375 53.69 32.34 53.62 32.27C53.55 32.165 53.55 32.025 53.655 31.92C53.97 31.71 54.285 31.57 54.67 31.5C54.81 31.5 54.915 31.57 54.95 31.71C54.985 31.85 54.88 31.955 54.74 31.99C54.46 32.025 54.18 32.13 53.97 32.305C53.935 32.34 53.865 32.375 53.83 32.375Z" fill="white"/>
<path d="M63.77 65.03H63.7C63.56 64.995 63.49 64.855 63.56 64.715C65.1 59.885 66.325 54.95 67.235 49.945C67.27 49.805 67.41 49.735 67.55 49.77C67.655 49.805 67.725 49.91 67.725 50.015C66.78 55.02 65.555 59.99 64.015 64.855C63.98 64.96 63.875 65.03 63.77 65.03Z" fill="white"/>
<path d="M92.435 95.935C70.315 116.165 36.085 114.975 15.4 93.275C15.75 93.1 16.135 92.925 16.485 92.75C26.18 88.795 31.465 96.915 31.465 96.915C31.465 96.915 33.985 83.58 49.385 83.58C64.785 83.58 68.355 94.08 68.355 94.08C68.355 94.08 71.505 87.745 78.47 88.165C85.435 88.585 86.485 97.335 86.485 97.335C88.375 96.46 90.405 96.005 92.435 95.935Z" fill="white"/>
<path d="M55.3 110.6C40.145 110.67 25.655 104.44 15.26 93.415C15.19 93.345 15.19 93.275 15.19 93.205C15.19 93.135 15.26 93.065 15.33 93.03C15.715 92.82 16.1 92.645 16.45 92.505C21.56 90.44 25.445 91.7 27.79 93.135C29.19 93.975 30.38 95.06 31.395 96.32C32.095 93.835 35.77 83.3 49.42 83.3C62.93 83.3 67.48 91.42 68.425 93.485C69.3 92.015 72.59 87.5 78.54 87.885C84.84 88.27 86.45 95.305 86.73 96.915C88.55 96.145 90.475 95.725 92.435 95.655C92.54 95.655 92.645 95.725 92.68 95.795C92.715 95.9 92.68 96.005 92.61 96.075C82.425 105.455 69.125 110.6 55.3 110.6ZM15.82 93.31C36.26 114.52 69.79 115.815 91.77 96.215C89.985 96.355 88.27 96.775 86.66 97.51C86.59 97.545 86.52 97.545 86.45 97.51C86.38 97.475 86.345 97.405 86.31 97.335C86.065 95.83 85.61 94.36 84.945 92.995C83.475 90.125 81.34 88.585 78.54 88.41C71.82 87.99 68.705 94.115 68.67 94.185C68.635 94.255 68.53 94.325 68.425 94.325C68.32 94.325 68.25 94.255 68.215 94.15C68.18 94.045 64.505 83.825 49.455 83.825C34.405 83.825 31.78 96.845 31.745 96.985C31.71 97.09 31.64 97.16 31.535 97.16C31.43 97.195 31.325 97.125 31.29 97.055C30.275 95.655 28.98 94.465 27.51 93.555C24.22 91.56 20.58 91.385 16.625 92.995C16.345 93.065 16.1 93.17 15.82 93.31Z" fill="#231F20"/>
<path d="M74.2 98.595C74.13 98.595 74.06 98.56 74.025 98.525C70.875 95.025 68.145 94.185 66.395 94.045C65.345 93.94 64.295 94.15 63.35 94.605C63.245 94.675 63.07 94.64 63 94.535C62.93 94.43 62.965 94.29 63.07 94.185C63.07 94.185 63.07 94.185 63.105 94.185C63.14 94.15 68.11 91.21 74.41 98.175C74.515 98.28 74.48 98.42 74.41 98.525C74.305 98.56 74.27 98.595 74.2 98.595Z" fill="#231F20"/>
</svg>
