<svg width="475" height="460" viewBox="0 0 475 460" fill="none" xmlns="http://www.w3.org/2000/svg">
<path d="M313.476 94.5024C303.224 58.8654 266.02 38.285 230.378 48.5348C194.735 58.7846 174.152 95.9832 184.403 131.62C192.717 160.522 218.759 179.517 247.317 180.199L259.169 185.183L242.373 247.538L328.987 263.854L364.188 173.263C364.188 173.263 313.092 174.22 300.047 156.608C314.139 140.044 319.938 116.967 313.476 94.5024Z" fill="#ED9DA0"/>
<path d="M1.35214 406.865L136.159 460L267.082 440.668L129.146 400.104L1.35214 406.865Z" fill="#090814"/>
<path d="M128.399 384.957L257.385 320.584L284.883 362.369L146.189 420.403C143.159 430.032 135.614 439.021 124.797 444.448C105.87 453.944 84.1551 448.946 76.2951 433.284C68.4351 417.623 77.4066 397.229 96.3336 387.733C107.151 382.306 118.868 381.631 128.399 384.957Z" fill="#ED9DA0"/>
<path d="M347.284 171.911C347.284 171.911 334.697 237.175 290.747 235.823C246.797 234.471 254.911 203.372 254.911 203.372L213.398 226.696C213.398 226.696 195.409 252.048 195.409 283.823L182.562 345.344L164.306 364.273L218.398 406.865L246.121 367.654L273.843 451.484L475 460L471.281 287.203C471.281 287.203 460.463 204.048 414.484 187.147C368.505 170.245 347.284 171.911 347.284 171.911Z" fill="#7197D9"/>
<path d="M235.397 67.4567C235.397 67.4567 209.036 91.3033 182.048 87.538C155.06 83.7728 150.039 74.3596 150.039 70.5944C150.039 70.5944 150.039 71.8495 157.57 74.3596L160.708 47.3753C160.708 47.3753 164.474 54.4529 178.282 56.8758C178.282 56.8758 166.357 51.894 178.282 42.1042C178.282 42.1042 184.559 47.3753 190.207 47.3753C190.207 47.3753 221.589 4.70247 283.725 31.6868V20.4744L289.374 34.8245L303.809 33.5694C303.809 33.5694 319.5 51.7681 318.245 64.319C316.99 76.8698 340.799 139.91 299.709 159.221C299.709 159.221 309.458 103.227 292.512 116.405C275.566 129.583 264.896 108.874 264.896 108.874L235.397 67.4567Z" fill="#090814"/>
<path d="M15.3819 343.41C11.5647 343.41 7.96795 341.964 5.19796 339.302C2.28203 336.5 0.676157 332.73 0.676157 328.686V134.837C0.676157 130.5 2.57455 126.405 5.88534 123.602C9.19481 120.799 13.5436 119.599 17.8264 120.315L169.16 145.581C176.339 146.78 181.512 152.931 181.46 160.209L180.294 322.831C180.237 330.709 174.026 337.125 166.153 337.437L15.9848 343.397C15.7834 343.405 15.5826 343.41 15.3819 343.41Z" fill="white"/>
<path d="M15.3819 344.086C11.3956 344.086 7.61205 342.56 4.72914 339.789C1.67982 336.859 0 332.916 0 328.686V134.837C0 130.3 1.98555 126.017 5.44822 123.086C8.91022 120.153 13.4617 118.902 17.938 119.649L169.272 144.914C176.78 146.168 182.191 152.602 182.136 160.213L180.97 322.836C180.912 330.85 174.766 337.416 166.854 338.071L166.855 338.086L16.0118 344.073C15.8012 344.081 15.5912 344.086 15.3819 344.086ZM15.3905 120.789C12.0929 120.789 8.88116 121.95 6.32247 124.118C3.16354 126.792 1.35231 130.699 1.35231 134.837V328.686C1.35231 332.544 2.88423 336.141 5.66678 338.814C8.43546 341.475 12.1239 342.877 15.9584 342.722L166.126 336.762C173.638 336.464 179.564 330.343 179.618 322.826L180.784 160.204C180.833 153.261 175.898 147.391 169.048 146.248L17.7148 120.982C16.9402 120.853 16.1631 120.789 15.3905 120.789Z" fill="#090814"/>
<path d="M67.8336 242.801H67.7973L22.397 242.596C17.6903 242.574 13.8612 238.728 13.8612 234.022V176.999C13.8612 174.57 14.8979 172.245 16.7058 170.621C18.5098 169 20.9345 168.219 23.3499 168.474L68.7475 173.344C73.1147 173.813 76.4077 177.477 76.4077 181.869V234.227C76.4077 236.525 75.511 238.683 73.882 240.304C72.2643 241.914 70.1163 242.801 67.8336 242.801ZM22.4433 169.779C20.667 169.779 18.939 170.433 17.6098 171.627C16.0865 172.995 15.2135 174.953 15.2135 176.999V234.022C15.2135 237.986 18.4391 241.226 22.4036 241.243L67.8006 241.449L67.8336 242.125V241.449C69.7564 241.449 71.5656 240.702 72.9285 239.345C74.3 237.98 75.0554 236.162 75.0554 234.227V181.869C75.0554 178.17 72.2814 175.083 68.6035 174.688L23.2066 169.819C22.9517 169.792 22.6968 169.779 22.4433 169.779Z" fill="#090814"/>
<path d="M157.083 242.583H88.3613C83.6328 242.583 79.7865 238.737 79.7865 234.01V186.214C79.7865 183.828 80.7928 181.531 82.5473 179.912C84.2991 178.295 86.6722 177.481 89.0506 177.668L157.772 183.209C162.194 183.566 165.658 187.319 165.658 191.755V234.01C165.658 238.737 161.811 242.583 157.083 242.583ZM88.3692 178.993C86.5606 178.993 84.7996 179.674 83.4638 180.906C81.9866 182.269 81.1388 184.204 81.1388 186.214V234.01C81.1388 237.992 84.379 241.231 88.3613 241.231H157.083C161.066 241.231 164.306 237.992 164.306 234.01V191.755C164.306 188.019 161.388 184.857 157.664 184.557L88.9424 179.015C88.7509 179 88.5594 178.993 88.3692 178.993Z" fill="#090814"/>
<path d="M89.9287 187.823V192.565L125.765 193.907V189.901L89.9287 187.823Z" fill="#090814"/>
<path d="M89.9287 199.226V203.889L151.459 206.076V202.651L89.9287 199.226Z" fill="#090814"/>
<path d="M89.9287 207.885V212.381L123.737 213.513V209.795L89.9287 207.885Z" fill="#090814"/>
<path d="M21.8879 296.234C19.7657 296.234 17.7636 295.413 16.2515 293.921C14.7104 292.401 13.8612 290.371 13.8612 288.206V259.361C13.8612 254.934 17.4632 251.332 21.8906 251.332H57.8953C62.3233 251.332 65.9253 254.934 65.9253 259.361V287.719C65.9253 292.087 62.3722 295.688 58.0042 295.747L21.8879 296.234ZM21.8906 252.684C18.2087 252.684 15.2135 255.679 15.2135 259.361V288.206C15.2135 290.007 15.9194 291.694 17.2011 292.959C18.4589 294.199 20.1229 294.882 21.8879 294.882L21.9817 294.882L57.9857 294.395C61.6181 294.346 64.573 291.351 64.573 287.719V259.361C64.573 255.679 61.5772 252.684 57.8953 252.684L21.8906 252.684Z" fill="#090814"/>
<path d="M80.7486 294.361C78.6369 294.361 76.6421 293.546 75.132 292.066C73.5789 290.544 72.7232 288.508 72.7232 286.333V259.361C72.7232 254.934 76.3252 251.332 80.7532 251.332H110.636C115.064 251.332 118.666 254.934 118.666 259.361V285.736C118.666 290.075 115.135 293.676 110.795 293.763L80.7486 294.361ZM80.7532 252.684C77.0713 252.684 74.0755 255.679 74.0755 259.361V286.333C74.0755 288.142 74.7867 289.835 76.0789 291.101C77.3348 292.332 78.9928 293.009 80.7486 293.009L80.8866 293.008L110.769 292.411C114.377 292.339 117.313 289.344 117.313 285.736V259.361C117.313 255.679 114.317 252.684 110.636 252.684H80.7532Z" fill="#090814"/>
<path d="M131.544 292.301C129.44 292.301 127.45 291.49 125.941 290.018C124.38 288.495 123.519 286.454 123.519 284.273V259.361C123.519 254.934 127.121 251.332 131.549 251.332H157.352C161.741 251.332 165.343 254.902 165.382 259.289L165.597 283.565C165.635 287.923 162.122 291.555 157.764 291.662L131.544 292.301ZM131.549 252.684C127.868 252.684 124.872 255.679 124.872 259.361V284.273C124.872 286.087 125.587 287.784 126.886 289.051C128.141 290.275 129.795 290.949 131.544 290.949L131.715 290.947L157.731 290.31C161.355 290.221 164.276 287.201 164.245 283.576L164.029 259.301C163.997 255.653 161.002 252.684 157.352 252.684L131.549 252.684Z" fill="#090814"/>
<path d="M23.3272 263.879V267.156H52.2771L52.8012 263.879H23.3272Z" fill="#090814"/>
<path d="M53.9024 232.527L38.1467 212.835L21.1008 229.878L20.1447 228.922L38.259 210.811L54.9589 231.682L53.9024 232.527Z" fill="#090814"/>
<path d="M64.3452 231.201L54.292 215.828L46.7644 222.471L45.8691 221.457L54.5693 213.781L65.4769 230.461L64.3452 231.201Z" fill="#090814"/>
<path d="M361.811 102.045C358.408 102.045 355.095 100.858 352.439 98.6337C349.113 95.8496 347.207 91.7655 347.207 87.4286V36.1144C347.207 29.3958 351.759 23.5655 358.279 21.9361L441.563 1.11797C445.916 0.0292877 450.455 0.974048 454.013 3.70732C457.571 6.44092 459.653 10.5818 459.723 15.0679L460.615 72.1814C460.728 79.3849 455.661 85.5315 448.568 86.7968L364.391 101.816C363.531 101.969 362.668 102.045 361.811 102.045Z" fill="white"/>
<path d="M361.811 102.721C358.236 102.721 354.754 101.453 352.006 99.152C348.526 96.2394 346.53 91.9666 346.53 87.4286V36.1144C346.53 29.0848 351.294 22.9848 358.115 21.2801L441.399 0.462058C445.952 -0.675818 450.701 0.31054 454.425 3.17123C458.148 6.03159 460.325 10.3639 460.399 15.0573L461.291 72.1708C461.41 79.7075 456.109 86.1386 448.687 87.4623L364.51 102.481C363.619 102.641 362.711 102.721 361.811 102.721ZM445.134 1.35202C444.001 1.35202 442.857 1.491 441.727 1.7739L358.442 22.592C352.225 24.1458 347.883 29.7064 347.883 36.1144V87.4286C347.883 91.5652 349.702 95.4604 352.873 98.1154C356.011 100.743 360.241 101.87 364.272 101.15L448.449 86.1313C455.215 84.9244 460.047 79.0621 459.939 72.1919L459.046 15.0785C458.98 10.8 456.995 6.85059 453.601 4.24341C451.131 2.34564 448.166 1.35202 445.134 1.35202Z" fill="#090814"/>
<path d="M373.238 37.0625V42.4309L427.331 30.978L429.359 24.8935L373.238 37.0625Z" fill="#090814"/>
<path d="M373.238 49.9075V55.276L427.331 43.823L429.359 37.7385L373.238 49.9075Z" fill="#090814"/>
<path d="M373.238 62.7526V68.121L427.331 56.6681L429.359 50.5836L373.238 62.7526Z" fill="#090814"/>
<path d="M373.238 75.5976V80.9661L427.331 69.5131L429.359 63.4286L373.238 75.5976Z" fill="#090814"/>
<path d="M231.853 401.008L375.983 398.007L382.954 447.539L232.763 440.657C225.904 448.063 215.238 452.96 203.138 453.237C181.968 453.723 164.48 439.916 164.078 422.398C163.676 404.88 180.512 390.285 201.683 389.8C213.782 389.522 224.661 393.925 231.853 401.008Z" fill="#ED9DA0"/>
<path d="M375.267 291.259C375.267 291.259 370.534 321.006 384.733 331.147C384.733 331.147 380 367.654 391.495 379.147C391.495 379.147 370.371 380.002 374.51 391.067C374.51 391.067 343.487 385.907 347.544 398.752C347.544 398.752 376.253 433.203 369.337 455.527L463.167 450.808L473.64 396.789" fill="#7197D9"/>
</svg>
