<svg width="87" height="90" viewBox="0 0 87 90" fill="none" xmlns="http://www.w3.org/2000/svg">
<path d="M39.861 0.0551209C31.342 0.837466 23.1406 4.16244 16.403 9.54997C14.5863 11.008 11.2528 14.3685 9.71833 16.3066C5.4853 21.6586 2.45163 27.953 0.987706 34.4429C0.105826 38.3902 0 39.4569 0 44.7556C0 49.2007 0.0529128 50.0898 0.405666 52.0101C2.18706 61.9495 6.1908 69.8618 12.8578 76.6541C19.6307 83.5351 28.4319 87.9447 38.0091 89.2426C40.2138 89.545 46.8103 89.545 48.8561 89.2426C55.5232 88.2649 61.3437 86.0955 66.776 82.5395C69.5098 80.7436 71.3794 79.2322 73.7429 76.8496C81.6445 68.9017 86.0715 58.9979 86.9005 47.4938C87.5002 38.9769 85.3661 29.6599 81.0977 22.2097C80.604 21.3386 78.3639 17.9247 77.9583 17.4091C72.5965 10.6524 67.1112 6.34946 59.8797 3.27341C56.9342 2.01099 53.001 0.890808 49.791 0.375174C48.0802 0.108464 41.5365 -0.104902 39.861 0.0551209ZM61.0085 19.1693C61.8375 20.0761 62.5254 20.8762 62.5254 20.9473C62.5254 21.0362 61.4847 21.1073 60.2148 21.1073C58.451 21.1073 57.922 21.1607 57.9748 21.3207C58.0453 21.4986 58.7862 21.5697 60.7087 21.6052L61.9857 21.631C62.8573 21.6485 63.6809 22.0331 64.2538 22.6898C64.8702 23.4002 64.5731 23.8868 63.6324 23.9063C62.3402 23.9332 60.2869 23.9522 57.9925 23.9522C54.1828 23.9522 51.0609 23.9878 51.0609 24.0235C51.0609 24.059 51.1139 24.219 51.1667 24.379C51.2726 24.628 52.0133 24.6457 58.5922 24.5391L64.3399 24.455C65.3294 24.4407 66.2787 24.8458 66.9524 25.5702C67.3578 26.0064 67.0518 26.716 66.4562 26.7207L61.379 26.7616C57.7456 26.7794 54.7648 26.8327 54.7648 26.8682C54.7648 26.9216 54.8178 27.0639 54.8706 27.224C54.9588 27.4729 55.7525 27.5084 61.8375 27.5084H66.2052C67.7983 27.5084 69.3227 28.1567 70.427 29.3042C71.3618 30.3 72.1555 31.1711 72.1908 31.2601C72.226 31.349 67.5521 31.4379 61.1673 31.4556L59.9117 31.4617C54.466 31.488 50.0516 35.8815 50.0027 41.3239L49.9467 47.5463C49.9346 48.8894 48.3131 49.558 47.357 48.6141C45.9459 47.2271 42.8771 44.1867 40.5313 41.8573L38.4601 39.8124C37.0429 38.4131 36.2453 36.5049 36.2453 34.514C36.2453 32.8053 34.8594 31.4201 33.1496 31.4201H32.6648H31.2995C29.8778 31.4201 28.5223 30.8195 27.5676 29.7665C26.7563 28.8775 25.3805 27.3306 24.5163 26.3526C23.1406 24.8235 17.7082 18.7958 17.0732 18.1202C16.9497 17.9957 16.844 17.8002 16.844 17.7113C16.844 17.6223 25.1689 17.5512 38.1678 17.5512H57.2732C58.6885 17.5512 60.0408 18.137 61.0085 19.1693ZM41.4837 48.2051C44.1823 50.8366 47.1983 53.7881 48.2036 54.7661C49.3548 55.9039 50.0027 57.4548 50.0027 59.0728V67.1769C50.0027 73.0446 49.932 77.8276 49.8615 77.8276C49.7028 77.8276 48.3976 76.5652 40.8311 69.0439L37.3563 65.5937C36.5896 64.8325 36.1635 63.794 36.1748 62.714C36.1748 61.7894 36.1925 57.042 36.21 52.1701C36.2181 49.7307 36.2407 47.6837 36.2711 46.1796C36.3092 44.3031 37.1139 43.9902 38.4697 45.2889C39.32 46.1035 40.3671 47.1162 41.4837 48.2051Z" fill="black"/>
</svg>
