<svg width="106" height="110" viewBox="0 0 106 110" fill="none" xmlns="http://www.w3.org/2000/svg">
<path d="M52.5216 109.92C81.5285 109.92 105.043 106.723 105.043 102.78C105.043 98.8367 81.5285 95.64 52.5216 95.64C23.5147 95.64 0 98.8367 0 102.78C0 106.723 23.5147 109.92 52.5216 109.92Z" fill="#000001"/>
<path d="M94.3728 93.4872H65.9352V100.973H94.3728V93.4872Z" fill="#E6E6E6"/>
<path d="M88.1568 86.1624H59.7192V93.648H88.1568V86.1624Z" fill="#E6E6E6"/>
<path d="M80.2584 81.3168C80.2584 81.3168 76.308 80.2368 75.4464 76.56C75.4464 76.56 81.5688 75.3216 81.744 81.6408L80.2584 81.3168Z" fill="#8AB1F4"/>
<path d="M80.7408 80.9256C80.7408 80.9256 77.9808 76.56 80.4096 72.48C80.4096 72.48 85.0656 75.4368 82.9968 80.9352L80.7408 80.9256Z" fill="#8AB1F4"/>
<path d="M81.4536 80.928C81.4536 80.928 82.9128 76.32 87.3216 75.4464C87.3216 75.4464 88.1472 78.4392 84.4656 80.94L81.4536 80.928Z" fill="#8AB1F4"/>
<path d="M78.588 80.8248L79.3872 86.304L84.432 86.3256L85.176 80.8512L78.588 80.8248Z" fill="#24285B"/>
<path d="M73.9392 0H17.6376V100.973H73.9392V0Z" fill="#A5A5A5"/>
<path d="M68.8968 11.5104H22.296V82.572H68.8968V11.5104Z" fill="white"/>
<path d="M45.9576 97.1784C48.9996 97.1784 51.4656 94.7124 51.4656 91.6704C51.4656 88.6284 48.9996 86.1624 45.9576 86.1624C42.9156 86.1624 40.4496 88.6284 40.4496 91.6704C40.4496 94.7124 42.9156 97.1784 45.9576 97.1784Z" fill="white"/>
<path d="M56.808 3.9456H41.0232V6.2472H56.808V3.9456Z" fill="#000001"/>
<path d="M35.3064 7.92C36.726 7.92 37.8768 6.76919 37.8768 5.3496C37.8768 3.93001 36.726 2.7792 35.3064 2.7792C33.8868 2.7792 32.736 3.93001 32.736 5.3496C32.736 6.76919 33.8868 7.92 35.3064 7.92Z" fill="white"/>
<path d="M60.0264 18.7968H17.6376V89.8584H60.0264V18.7968Z" fill="#000001"/>
<path d="M56.8104 15.8904H10.2096V86.952H56.8104V15.8904Z" fill="#8AB1F4"/>
<path d="M49.5216 64.9584H17.496C15.9783 64.9584 14.748 66.1887 14.748 67.7064V71.8752C14.748 73.3929 15.9783 74.6232 17.496 74.6232H49.5216C51.0393 74.6232 52.2696 73.3929 52.2696 71.8752V67.7064C52.2696 66.1887 51.0393 64.9584 49.5216 64.9584Z" fill="#000001"/>
<path d="M21.0552 67.2888H22.5648L22.4424 68.3208C22.416 68.5704 22.3584 68.856 22.272 69.1752C22.4448 69.0888 22.5576 69.0288 22.6128 68.9976C22.8048 68.892 22.9488 68.8176 23.0496 68.772L23.9976 68.3208L24.468 69.7608L23.4168 69.9792C23.2248 70.0152 22.9416 70.0416 22.5624 70.0536C22.8168 70.2528 23.0208 70.4352 23.1696 70.6008L23.88 71.3712L22.6512 72.2928L22.1448 71.3712C22.0728 71.2392 21.9528 70.9824 21.7896 70.6008C21.612 71.0184 21.4944 71.2776 21.4344 71.3712L20.9232 72.2928L19.6608 71.3712L20.4264 70.6008C20.64 70.3872 20.8488 70.2048 21.0552 70.0536C20.8464 70.0344 20.5704 69.9936 20.2296 69.9312L19.1712 69.7608L19.6632 68.3208L20.6112 68.7504C20.712 68.796 20.9592 68.9376 21.3552 69.1728C21.2688 68.7912 21.2136 68.5056 21.192 68.3184L21.0552 67.2864V67.2888Z" fill="white"/>
<path d="M28.848 67.2888H30.3576L30.2352 68.3208C30.2088 68.5704 30.1512 68.856 30.0648 69.1752C30.2376 69.0888 30.3504 69.0288 30.4056 68.9976C30.5976 68.892 30.7416 68.8176 30.8424 68.772L31.7904 68.3208L32.2608 69.7608L31.2096 69.9792C31.0176 70.0152 30.7344 70.0416 30.3552 70.0536C30.6096 70.2528 30.8136 70.4352 30.9624 70.6008L31.6728 71.3712L30.444 72.2928L29.9376 71.3712C29.8656 71.2392 29.7456 70.9824 29.5824 70.6008C29.4048 71.0184 29.2872 71.2776 29.2272 71.3712L28.716 72.2928L27.4536 71.3712L28.2192 70.6008C28.4328 70.3872 28.6416 70.2048 28.848 70.0536C28.6392 70.0344 28.3632 69.9936 28.0224 69.9312L26.964 69.7608L27.456 68.3208L28.404 68.7504C28.5048 68.796 28.752 68.9376 29.148 69.1728C29.0616 68.7912 29.0064 68.5056 28.9848 68.3184L28.848 67.2864V67.2888Z" fill="white"/>
<path d="M36.6408 67.2888H38.1504L38.028 68.3208C38.0016 68.5704 37.944 68.856 37.8576 69.1752C38.0304 69.0888 38.1432 69.0288 38.1984 68.9976C38.3904 68.892 38.5344 68.8176 38.6352 68.772L39.5832 68.3208L40.0536 69.7608L39.0024 69.9792C38.8104 70.0152 38.5272 70.0416 38.148 70.0536C38.4024 70.2528 38.6064 70.4352 38.7552 70.6008L39.4656 71.3712L38.2368 72.2928L37.7304 71.3712C37.6584 71.2392 37.5384 70.9824 37.3752 70.6008C37.1976 71.0184 37.08 71.2776 37.02 71.3712L36.5088 72.2928L35.2464 71.3712L36.012 70.6008C36.2256 70.3872 36.4344 70.2048 36.6408 70.0536C36.432 70.0344 36.156 69.9936 35.8152 69.9312L34.7568 69.7608L35.2488 68.3208L36.1968 68.7504C36.2976 68.796 36.5448 68.9376 36.9408 69.1728C36.8544 68.7912 36.7992 68.5056 36.7776 68.3184L36.6408 67.2864V67.2888Z" fill="white"/>
<path d="M44.4336 67.2888H45.9432L45.8208 68.3208C45.7944 68.5704 45.7368 68.856 45.6504 69.1752C45.8232 69.0888 45.936 69.0288 45.9912 68.9976C46.1832 68.892 46.3272 68.8176 46.428 68.772L47.376 68.3208L47.8464 69.7608L46.7952 69.9792C46.6032 70.0152 46.32 70.0416 45.9408 70.0536C46.1952 70.2528 46.3992 70.4352 46.548 70.6008L47.2584 71.3712L46.0296 72.2928L45.5232 71.3712C45.4512 71.2392 45.3312 70.9824 45.168 70.6008C44.9904 71.0184 44.8728 71.2776 44.8128 71.3712L44.3016 72.2928L43.0392 71.3712L43.8048 70.6008C44.0184 70.3872 44.2272 70.2048 44.4336 70.0536C44.2248 70.0344 43.9488 69.9936 43.608 69.9312L42.5496 69.7608L43.0416 68.3208L43.9896 68.7504C44.0904 68.796 44.3376 68.9376 44.7336 69.1728C44.6472 68.7912 44.592 68.5056 44.5704 68.3184L44.4336 67.2864V67.2888Z" fill="white"/>
<path d="M46.6536 42.3936H19.1712V60.6984H46.6536V42.3936Z" fill="#FFD200"/>
<path d="M41.436 42.3936H39.4632V36.7128C39.4632 33.0504 36.4824 30.0696 32.82 30.0696C29.1576 30.0696 26.1768 33.0504 26.1768 36.7128V42.3936H24.204V36.7128C24.204 31.9608 28.068 28.0968 32.82 28.0968C37.572 28.0968 41.436 31.9608 41.436 36.7128V42.3936Z" fill="white"/>
<path d="M32.9136 52.9584C34.9416 52.9584 36.5856 51.3144 36.5856 49.2864C36.5856 47.2584 34.9416 45.6144 32.9136 45.6144C30.8856 45.6144 29.2416 47.2584 29.2416 49.2864C29.2416 51.3144 30.8856 52.9584 32.9136 52.9584Z" fill="#24285B"/>
<path d="M34.344 50.9808H31.4832V57.5808H34.344V50.9808Z" fill="#24285B"/>
<path d="M73.9392 28.56H62.004V52.0416H73.9392V28.56Z" fill="#000001"/>
<path d="M87.3792 27.0072H63.5112V50.4888H87.3792V27.0072Z" fill="#24285B"/>
<path d="M75.4464 31.1736C75.4464 31.1736 73.4904 33.744 68.8992 34.2936V40.7784C68.8992 44.4504 75.4464 46.32 75.4464 46.32C75.4464 46.32 81.9936 44.4504 81.9936 40.7784V34.2936C77.4024 33.744 75.4464 31.1736 75.4464 31.1736Z" fill="#FFD200"/>
<path d="M74.2608 42.4776L71.5176 39.4032L72.9888 38.0904L74.3664 39.6336L78.4128 35.7264L79.7832 37.1472L74.2608 42.4776Z" fill="white"/>
<path d="M81.1704 8.9016H62.0976V22.5048H81.1704V8.9016Z" fill="#E6E6E6"/>
<path d="M71.532 11.5128C72.6 11.5128 73.4568 11.6736 74.2824 11.9952C75.0336 12.2856 75.7152 12.6912 76.3224 13.2192C76.5576 13.4232 76.7808 13.6416 76.9968 13.8648C77.28 14.1528 77.2728 14.5992 76.992 14.892C76.7232 15.1728 76.2696 15.1968 75.9744 14.9328C75.7536 14.736 75.552 14.5152 75.3264 14.3232C74.7528 13.8336 74.1024 13.476 73.38 13.2528C72.3144 12.9216 71.244 12.912 70.1736 13.212C69.5328 13.392 68.9448 13.6848 68.4048 14.0784C68.0472 14.3376 67.74 14.6472 67.4304 14.9568C67.2816 15.108 67.128 15.2376 66.9048 15.264C66.6168 15.3 66.3072 15.1608 66.1728 14.9208C66.0048 14.6232 66.0144 14.3112 66.228 14.0712C66.6552 13.5888 67.128 13.1568 67.656 12.7848C68.2896 12.3408 68.9808 12.0096 69.7248 11.7936C70.3752 11.6064 71.0376 11.508 71.5296 11.5128H71.532Z" fill="white"/>
<path d="M71.8944 14.2032C72.492 14.232 73.0584 14.376 73.5936 14.6304C74.1984 14.9184 74.7072 15.3384 75.1368 15.8472C75.3912 16.1496 75.3792 16.5576 75.1224 16.8792C74.904 17.1528 74.4864 17.256 74.1648 17.0712C73.9704 16.9584 73.8048 16.7904 73.6392 16.632C72.9216 15.9528 72.0888 15.7032 71.1216 15.9312C70.5744 16.0608 70.14 16.368 69.756 16.7664C69.6024 16.9248 69.4416 17.0856 69.2544 17.2008C68.9472 17.3904 68.5272 17.304 68.2872 17.04C68.0304 16.7544 67.9896 16.3248 68.22 16.0248C68.3784 15.8208 68.568 15.6408 68.7552 15.4608C69.0072 15.2184 69.2784 15.0024 69.5784 14.8224C70.0656 14.5296 70.5888 14.3424 71.1504 14.2632C71.3952 14.2296 71.6448 14.2224 71.892 14.2056L71.8944 14.2032Z" fill="white"/>
<path d="M72.9552 18.5688C72.9744 19.2288 72.4656 19.8624 71.7024 19.8912C71.028 19.9152 70.3968 19.4064 70.3656 18.6408C70.3392 17.964 70.8408 17.3256 71.6352 17.2992C72.2904 17.2776 72.9312 17.784 72.9552 18.5688Z" fill="white"/>
</svg>
