<svg width="239" height="284" viewBox="0 0 239 284" fill="none" xmlns="http://www.w3.org/2000/svg">
<path d="M99.1357 120.304C99.1357 120.304 59.9348 104.988 46.7003 115.533C33.4658 126.078 -6.40521 239.812 0.882142 258.893C8.16949 277.974 63.1178 268.35 63.1178 268.35C63.1178 268.35 217.325 277.472 232.988 271.614C256.358 262.827 204.593 125.66 196.803 118.295C189.013 110.93 153.414 123.567 153.414 123.567" fill="#71B8D9"/>
<path d="M66.8033 236.883C66.7196 236.883 66.552 236.883 66.4683 236.799C48.1243 224.246 24.587 227.51 24.3357 227.51C24.0006 227.593 23.7493 227.342 23.6656 227.008C23.5818 226.673 23.8331 226.422 24.1681 226.338C24.4194 226.338 48.4593 222.99 67.1384 235.795C67.3897 235.962 67.4734 236.297 67.3059 236.632C67.1384 236.799 66.9709 236.883 66.8033 236.883Z" fill="#231F20"/>
<path d="M180.385 236.883C180.218 236.883 180.05 236.799 179.883 236.632C179.715 236.381 179.715 236.046 179.967 235.795C198.729 222.99 222.686 226.254 222.937 226.338C223.272 226.422 223.523 226.673 223.439 227.008C223.356 227.342 223.104 227.593 222.769 227.51C222.518 227.51 198.981 224.246 180.637 236.799C180.637 236.799 180.553 236.883 180.385 236.883Z" fill="#231F20"/>
<path d="M54.909 219.978C54.574 219.978 54.3227 219.643 54.3227 219.392L58.4271 149.678C58.4271 149.344 58.7621 149.093 59.0134 149.093C59.3485 149.093 59.5997 149.427 59.5997 149.678L55.4954 219.392C55.4954 219.727 55.2441 219.978 54.909 219.978Z" fill="#231F20"/>
<path d="M180.385 219.978C180.05 219.978 179.799 219.727 179.799 219.392V152.608C179.799 152.273 180.05 152.022 180.385 152.022C180.72 152.022 180.972 152.273 180.972 152.608V219.392C180.972 219.727 180.72 219.978 180.385 219.978Z" fill="#231F20"/>
<path d="M85.5661 115.952C85.5661 115.952 98.9682 186.167 124.264 219.392C124.264 219.392 158.523 158.131 165.141 119.969C165.141 119.969 139.174 124.906 129.542 125.074C119.909 125.241 85.5661 115.952 85.5661 115.952Z" fill="#231F20"/>
<path d="M124.181 219.978C124.013 219.978 123.846 219.894 123.678 219.727C98.7169 186.753 85.1473 116.705 84.9798 116.035C84.896 115.868 84.9798 115.617 85.1473 115.533C85.3149 115.366 85.4824 115.366 85.7337 115.366C86.0687 115.45 119.741 124.488 129.374 124.488H129.542C139.007 124.404 164.722 119.467 165.057 119.383C165.224 119.383 165.476 119.383 165.559 119.55C165.727 119.718 165.727 119.885 165.727 120.052C159.11 157.88 125.102 219.057 124.767 219.643C124.683 219.81 124.432 219.978 124.181 219.978ZM86.32 116.705C87.9953 124.99 101.23 187.339 124.181 218.304C128.118 211.023 157.937 156.039 164.387 120.722C159.78 121.559 138.253 125.576 129.542 125.66H129.374C120.411 125.66 91.9321 118.211 86.32 116.705Z" fill="#231F20"/>
<path d="M116.14 141.895L121.584 151.269L107.931 191.691L124.181 219.392L139.09 190.435L128.285 151.436L133.981 141.895L125.018 132.941L116.14 141.895Z" fill="#D1D3D4"/>
<path d="M124.181 219.978C124.013 219.978 123.762 219.894 123.678 219.727L107.428 192.109C107.344 191.942 107.344 191.774 107.344 191.607L120.914 151.436L115.637 142.23C115.469 141.979 115.553 141.728 115.721 141.561L124.516 132.69C124.6 132.522 124.767 132.522 124.935 132.522C125.102 132.522 125.27 132.606 125.353 132.69L134.316 141.561C134.484 141.728 134.567 142.063 134.4 142.314L128.871 151.687L139.593 190.435C139.593 190.603 139.593 190.77 139.593 190.854L124.683 219.727C124.6 219.81 124.432 219.978 124.181 219.978ZM108.601 191.691L124.181 218.136L138.504 190.352L127.782 151.603C127.782 151.436 127.783 151.269 127.866 151.185L133.311 141.979L125.018 133.778L116.893 141.979L122.087 151.018C122.17 151.185 122.17 151.352 122.17 151.52L108.601 191.691Z" fill="#231F20"/>
<path d="M97.1254 113.357L148.639 113.525L147.718 133.192H111.365L93.6911 124.739L97.1254 113.357Z" fill="#231F20"/>
<path d="M147.718 133.777H111.365C111.281 133.777 111.198 133.778 111.114 133.694L93.4398 125.241C93.1885 125.074 93.021 124.823 93.1048 124.572L96.5391 113.19C96.6228 112.939 96.8741 112.771 97.1254 112.771L148.639 112.939C148.974 112.939 149.226 113.19 149.226 113.525L148.304 133.192C148.304 133.526 148.053 133.777 147.718 133.777ZM111.449 132.606H147.132L147.969 114.11L97.5442 113.943L94.3612 124.404L111.449 132.606Z" fill="#231F20"/>
<path d="M162.041 63.3947C164.806 57.2854 165.559 49.1675 166.648 42.6398C167.151 39.7106 168.659 35.8609 168.24 32.8481C167.905 30.7559 166.565 29.0821 166.397 26.7388C166.313 24.6465 166.313 22.3869 165.141 20.7131C163.968 19.0393 161.12 18.2024 159.864 19.8762C161.539 14.6875 162.544 9.24768 162.795 3.80787C158.356 5.81642 153.414 6.65331 148.556 6.15117C150.482 4.56107 152.157 2.63622 153.498 0.460294C149.226 3.64049 143.279 2.63621 138.002 1.9667C125.856 0.460291 113.124 1.9667 102.57 8.07603C99.1357 10.0009 95.7852 12.93 95.3664 16.8634C92.7697 16.1939 89.838 17.4492 87.9953 19.4578C86.2362 21.55 85.0636 24.0607 84.561 26.7388C80.9592 42.2213 86.8226 55.5279 88.4141 70.8431C99.8895 71.5126 111.365 72.5169 122.924 72.3495C132.138 72.1821 157.099 74.2744 162.041 63.3947Z" fill="white"/>
<path d="M132.389 73.019C130.63 73.019 128.955 73.019 127.447 72.9353C125.772 72.9353 124.181 72.9353 123.008 72.9353C113.627 73.1027 104.161 72.4332 94.9476 71.8474L88.4141 71.4289C88.1628 71.4289 87.9115 71.1778 87.9115 70.9268C87.4089 65.9891 86.4875 61.2188 85.4824 56.6159C83.4721 46.6568 81.6293 37.2836 84.0584 26.6551C84.8123 23.3075 85.985 20.8805 87.6602 19.0393C89.503 16.9471 92.1834 15.8591 94.9476 16.1939C95.5339 13.0137 97.963 10.1683 102.319 7.65758C112.119 1.9667 124.851 -0.209225 138.085 1.46456L139.258 1.63195C144.284 2.30146 149.393 2.97097 153.163 0.125534C153.414 -0.0418447 153.665 -0.0418447 153.916 0.125534C154.168 0.292913 154.168 0.627672 154 0.87874C152.911 2.71991 151.571 4.3937 150.063 5.81642C154.335 6.06748 158.691 5.23059 162.544 3.38942C162.879 3.22204 163.214 3.38942 163.298 3.72418C163.298 3.80787 163.382 3.89156 163.382 3.97525C163.13 8.91292 162.293 13.8506 160.869 18.6209C161.204 18.5372 161.623 18.4535 161.958 18.4535C163.382 18.5372 164.722 19.2904 165.559 20.4621C166.732 22.1358 166.816 24.2281 166.9 26.2366V26.8225C166.983 27.9104 167.318 29.0821 167.821 30.0863C168.24 31.0069 168.575 31.9275 168.742 32.9318C169.077 35.024 168.407 37.451 167.821 39.878C167.57 40.966 167.318 41.9702 167.151 42.8908C166.983 44.0625 166.732 45.4015 166.565 46.6568C165.727 52.3477 164.806 58.7918 162.544 63.8132C158.775 72.0984 143.781 73.019 132.389 73.019ZM124.013 71.7637C125.018 71.7637 126.107 71.7637 127.364 71.7637C137.834 71.9311 157.351 72.1821 161.455 63.1437C163.633 58.2897 164.638 51.9293 165.392 46.3221C165.559 44.9831 165.811 43.7277 165.978 42.5561C166.146 41.5518 166.397 40.5475 166.648 39.4596C167.235 37.1999 167.821 34.8566 167.486 33.0155C167.318 32.1786 167.067 31.3417 166.648 30.5048C166.062 29.3331 165.727 28.1615 165.643 26.9061V26.3203C165.559 24.4792 165.476 22.638 164.471 21.1316C163.884 20.211 162.879 19.7089 161.79 19.6252C161.12 19.5415 160.534 19.7925 160.115 20.2947C159.947 20.5457 159.529 20.6294 159.277 20.3784C159.11 20.211 159.026 19.9599 159.11 19.7089C160.617 14.8549 161.623 9.8335 161.958 4.72845C157.686 6.48593 152.995 7.23913 148.304 6.737C147.969 6.737 147.718 6.40224 147.802 6.06748C147.802 5.9001 147.886 5.81641 148.053 5.64903C149.31 4.64476 150.398 3.47311 151.404 2.13408C147.634 3.72418 143.027 3.13835 138.839 2.55253L137.667 2.38515C124.683 0.711357 112.203 2.88729 102.654 8.41079C98.3818 10.9215 96.0365 13.6832 95.7852 16.696C95.7852 17.0308 95.4501 17.2819 95.1151 17.1982H95.0313C92.5184 16.696 89.9218 17.6166 88.2465 19.5415C86.7388 21.2153 85.6499 23.4749 84.9798 26.5714C82.6345 36.8652 84.4772 46.1547 86.4038 56.0301C87.3252 60.5493 88.2466 65.1522 88.7491 70.0062L94.78 70.4246C103.91 71.0105 113.375 71.68 122.757 71.5126L124.013 71.7637Z" fill="#231F20"/>
<path d="M99.1357 127.501C99.1357 127.501 108.685 132.355 125.018 132.941C141.352 133.526 144.116 129.091 144.116 129.091L143.697 120.304L142.776 99.967L141.938 80.9695L104.58 79.6305L102.821 95.113L102.235 100.134L99.1357 127.501Z" fill="white"/>
<path d="M127.783 133.61C126.945 133.61 125.94 133.61 125.018 133.526C108.685 132.941 98.9682 128.087 98.8844 128.003C98.6331 127.919 98.5494 127.668 98.5494 127.417L103.994 79.5468C103.994 79.212 104.329 79.0446 104.58 79.0446L141.938 80.3C142.273 80.3 142.525 80.5511 142.525 80.8858L144.703 129.007C144.703 129.091 144.703 129.258 144.619 129.342C144.451 129.593 141.855 133.61 127.783 133.61ZM99.722 127.166C101.565 128.003 110.695 131.853 125.018 132.355C139.09 132.857 142.86 129.593 143.53 128.84L141.436 81.4716L105.167 80.2163L99.722 127.166Z" fill="#231F20"/>
<path d="M102.235 100.218C104.915 104.821 109.439 108.587 114.129 111.432C122.003 116.119 133.897 121.559 143.697 120.471L142.776 100.134C135.572 100.804 128.369 100.553 121.249 99.5485C114.967 98.7953 108.517 97.9585 102.821 95.2804L102.235 100.218Z" fill="#231F20"/>
<path d="M140.933 121.057C130.882 121.057 119.825 115.366 113.878 111.851C108.266 108.42 104.161 104.654 101.816 100.469C101.732 100.385 101.732 100.218 101.732 100.134L102.319 95.113C102.319 94.9456 102.486 94.7783 102.654 94.6946C102.821 94.6109 102.989 94.6109 103.156 94.6946C108.936 97.3726 115.553 98.2095 121.417 98.879C129.96 99.967 136.578 100.134 142.86 99.4649C143.195 99.4649 143.446 99.7159 143.53 100.051L144.451 120.387C144.451 120.722 144.2 120.973 143.949 120.973C142.776 121.057 141.855 121.057 140.933 121.057ZM102.821 100.051C105.167 103.984 109.02 107.583 114.464 110.847C120.746 114.613 132.808 120.806 143.111 119.801L142.273 100.637C136.075 101.222 129.542 101.055 121.249 99.967C115.553 99.2975 109.103 98.4606 103.324 96.0336L102.821 100.051Z" fill="#231F20"/>
<path d="M152.911 38.2879C154.754 38.4553 154.251 43.644 154.251 46.4058V60.2145C154.251 65.6543 154.419 71.0942 154.251 76.534C154.168 78.4588 153.916 80.3837 153.498 82.3085C150.315 95.5314 138.253 104.654 124.683 104.151L121.333 104.068C108.601 103.649 97.7117 94.8619 94.5287 82.5596C93.8586 79.8815 93.6074 77.2035 93.6911 74.4417C93.7749 71.2615 93.6911 68.0813 93.6911 64.9011C93.6911 60.884 91.5971 51.0924 96.2878 49.2512C97.7955 48.6654 99.4707 48.7491 101.062 48.498C105.753 47.9122 110.025 45.4852 112.873 41.7192L112.119 46.1547C120.328 46.9079 128.536 45.7363 136.243 42.8908C140.012 41.4681 143.865 39.2922 145.456 35.6098L145.289 43.8114C147.215 43.5603 148.556 41.8029 149.896 40.2964C151.236 38.79 152.241 38.2042 152.911 38.2879Z" fill="white"/>
<path d="M125.688 104.737H124.683L121.333 104.654C108.35 104.151 97.2929 95.2804 94.0262 82.727C93.3561 80.0489 93.021 77.2872 93.1048 74.4417C93.1885 72.3495 93.1048 70.1736 93.1048 68.0813C93.1048 66.9934 93.1048 65.9891 93.1048 64.9011C93.1048 64.0642 93.021 63.06 92.9373 61.8046C92.5184 56.9506 91.9321 50.2555 96.1202 48.6654C97.2929 48.2469 98.5494 48.0796 99.8058 47.9959C100.225 47.9959 100.643 47.9122 101.062 47.9122C105.585 47.4101 109.69 45.0668 112.454 41.3844C112.621 41.1334 112.873 41.1334 113.124 41.217C113.375 41.3007 113.543 41.5518 113.459 41.8865L112.789 45.6526C120.663 46.2384 128.536 45.0667 135.907 42.305C140.766 40.4638 143.53 38.2879 144.703 35.3588C144.786 35.024 145.205 34.9403 145.456 35.024C145.708 35.1077 145.791 35.3588 145.791 35.6098L145.708 42.9745C146.964 42.4724 147.969 41.3844 148.974 40.2128L149.31 39.7943C150.817 38.1205 151.906 37.3673 152.828 37.5347C154.922 37.7858 154.838 41.4681 154.754 44.732C154.754 45.2341 154.754 45.7363 154.754 46.2384V60.0472C154.754 61.8883 154.754 63.6458 154.838 65.487C154.838 69.0856 154.922 72.7679 154.838 76.3666C154.419 92.2676 141.436 104.737 125.688 104.737ZM112.035 43.8114C109.187 46.7405 105.334 48.6654 101.23 49.1675C100.811 49.2512 100.392 49.2512 99.8896 49.2512C98.7169 49.2512 97.628 49.5023 96.5391 49.837C93.1886 51.0924 93.6911 57.2854 94.1099 61.7209C94.1937 62.9763 94.2775 64.0642 94.2775 64.9011C94.2775 65.9054 94.2775 66.9934 94.2775 68.0813C94.2775 70.1736 94.3612 72.3495 94.2775 74.4417C93.6911 89.8406 105.753 102.896 121.165 103.482C121.249 103.482 121.249 103.482 121.333 103.482L124.683 103.566C138.002 103.984 149.812 95.0293 152.995 82.1412C153.414 80.3 153.665 78.3751 153.749 76.534C153.833 72.9353 153.833 69.253 153.749 65.6543C153.749 63.8132 153.749 62.0557 153.665 60.2145V46.3221C153.665 45.9036 153.665 45.4015 153.665 44.8157C153.665 42.8908 153.833 38.8737 152.828 38.79C152.576 38.79 151.906 38.8737 150.315 40.7149L149.98 41.0497C148.723 42.4724 147.383 44.0625 145.373 44.3135C145.038 44.3135 144.786 44.1462 144.703 43.8114V43.7277L144.786 37.8695C143.111 40.1291 140.431 41.8865 136.41 43.393C128.704 46.3221 120.328 47.4937 112.119 46.7405C111.951 46.7405 111.784 46.6568 111.7 46.4895C111.616 46.3221 111.533 46.2384 111.616 46.071L112.035 43.8114Z" fill="#231F20"/>
<path d="M124.348 56.6159C124.348 56.6159 133.73 77.3709 129.542 77.7893C125.353 78.2078 119.49 75.0275 119.49 75.0275" fill="white"/>
<path d="M128.788 78.3751C124.6 78.3751 119.406 75.6971 119.155 75.5297C118.904 75.3623 118.736 75.0275 118.904 74.7765C119.071 74.5254 119.406 74.358 119.658 74.5254C119.741 74.5254 125.437 77.5382 129.374 77.2035C129.542 77.2035 129.625 77.1198 129.709 77.0361C130.965 74.8602 126.694 63.5621 123.678 56.9506C123.511 56.6159 123.678 56.2811 124.013 56.1974C124.348 56.0301 124.683 56.1974 124.767 56.4485C125.605 58.2897 132.725 74.1907 130.798 77.6219C130.547 78.0404 130.044 78.3751 129.542 78.3751C129.374 78.3751 129.123 78.3751 128.788 78.3751Z" fill="#231F20"/>
<path d="M113.375 66.6586C114.486 66.6586 115.386 64.9725 115.386 62.8926C115.386 60.8127 114.486 59.1266 113.375 59.1266C112.265 59.1266 111.365 60.8127 111.365 62.8926C111.365 64.9725 112.265 66.6586 113.375 66.6586Z" fill="#231F20"/>
<path d="M138.253 66.6586C139.363 66.6586 140.263 64.9725 140.263 62.8926C140.263 60.8127 139.363 59.1266 138.253 59.1266C137.143 59.1266 136.243 60.8127 136.243 62.8926C136.243 64.9725 137.143 66.6586 138.253 66.6586Z" fill="#231F20"/>
<path d="M148.639 113.525C147.886 113.525 124.767 132.941 124.767 132.941L139.09 149.595L154.335 120.471L148.639 113.525Z" fill="white"/>
<path d="M139.09 150.264C138.923 150.264 138.755 150.181 138.672 150.097L124.348 133.443C124.264 133.359 124.181 133.192 124.181 133.024C124.181 132.857 124.264 132.69 124.348 132.606C147.634 113.023 148.304 113.023 148.556 113.023C148.723 113.023 148.891 113.106 148.974 113.19L154.754 120.22C154.922 120.387 154.922 120.638 154.838 120.889L139.593 149.93C139.509 150.097 139.342 150.181 139.09 150.264ZM125.605 133.024L139.007 148.591L153.665 120.555L148.472 114.278C146.21 115.868 133.981 125.994 125.605 133.024Z" fill="#231F20"/>
<path d="M97.1254 113.357C97.8793 113.357 125.018 132.941 125.018 132.941L108.433 149.595L91.9321 117.793L97.1254 113.357Z" fill="white"/>
<path d="M108.433 150.264H108.35C108.182 150.264 108.015 150.097 107.931 149.93L91.4295 118.128C91.3458 117.877 91.3458 117.625 91.597 117.374L96.7903 112.939C96.8741 112.855 97.0416 112.771 97.2091 112.771C97.4604 112.771 98.1305 112.771 125.437 132.522C125.605 132.606 125.688 132.773 125.688 132.941C125.688 133.108 125.605 133.275 125.521 133.443L108.936 150.097C108.768 150.181 108.601 150.264 108.433 150.264ZM92.686 117.96L108.601 148.674L124.097 133.024C114.045 125.827 99.5545 115.366 97.2091 114.027L92.686 117.96Z" fill="#231F20"/>
<path d="M124.767 95.7825C124.516 95.7825 124.181 95.7825 123.929 95.7825C112.789 95.0293 110.444 82.3085 110.36 82.1412C110.36 81.9738 110.36 81.8064 110.444 81.639C110.527 81.4716 110.695 81.388 110.862 81.388L140.682 80.3837C140.849 80.3837 141.101 80.4674 141.185 80.6347C141.268 80.8021 141.352 80.9695 141.268 81.2206C141.017 81.8064 135.321 95.7825 124.767 95.7825ZM111.616 82.5596C112.286 85.0703 115.134 93.9414 123.929 94.6109C132.725 95.2804 138.337 84.7355 139.761 81.639L111.616 82.5596Z" fill="#231F20"/>
<path d="M85.0636 42.2213H93.6911V79.7142H85.0636C80.8754 79.7142 77.4412 76.2829 77.4412 72.0984V49.9207C77.4412 45.6526 80.7917 42.2213 85.0636 42.2213Z" fill="white"/>
<path d="M93.6911 80.3H88.079C81.8806 80.3 76.7711 75.2786 76.7711 69.0019V52.9336C76.7711 46.7405 81.7968 41.6355 88.079 41.6355H93.6911C94.0262 41.6355 94.2775 41.8866 94.2775 42.2213V79.7142C94.2775 80.0489 94.0262 80.3 93.6911 80.3ZM88.079 42.8071C82.4669 42.8071 77.9437 47.3264 77.9437 52.9336V69.0019C77.9437 74.6091 82.4669 79.1283 88.079 79.1283H93.1048V42.8071H88.079Z" fill="#231F20"/>
<path d="M163.047 78.7099H154.419V41.217H163.047C167.235 41.217 170.669 44.6483 170.669 48.8328V71.0942C170.669 75.2786 167.235 78.7099 163.047 78.7099Z" fill="white"/>
<path d="M159.947 79.2957H154.335C154 79.2957 153.749 79.0446 153.749 78.7099V41.217C153.749 40.8823 154 40.6312 154.335 40.6312H159.947C166.146 40.6312 171.255 45.6526 171.255 51.9293V67.9977C171.255 74.2744 166.23 79.2957 159.947 79.2957ZM154.922 78.1241H159.947C165.559 78.1241 170.083 73.6048 170.083 67.9977V51.9293C170.083 46.3221 165.559 41.8029 159.947 41.8029H154.922V78.1241Z" fill="#231F20"/>
<path d="M160.282 51.5945C159.612 51.5945 159.11 51.0924 159.11 50.4229C159.11 30.8396 146.88 14.9386 131.803 14.9386H116.642C101.565 14.9386 89.3355 30.8396 89.3355 50.4229C89.3355 51.0924 88.8329 51.5945 88.1628 51.5945C87.4927 51.5945 86.9901 51.0924 86.9901 50.4229C86.9901 29.5842 100.308 12.5953 116.642 12.5953H131.803C148.137 12.5953 161.455 29.5842 161.455 50.4229C161.455 51.0924 160.953 51.5945 160.282 51.5945Z" fill="#231F20"/>
<path d="M100.476 91.0959C94.8638 91.0959 90.2569 90.8449 89.503 89.9243C87.4927 87.6647 86.8226 76.8687 86.7388 75.6134C86.7388 75.2786 86.9901 75.0275 87.3252 75.0275C87.6602 75.0275 87.9115 75.1949 87.9115 75.5297C87.9115 75.5297 87.9115 75.5297 87.9115 75.6134C88.079 78.7936 88.8329 87.4973 90.3406 89.1711C91.5971 90.4264 108.768 90.0079 124.683 89.0037C125.018 89.0037 125.27 89.2547 125.353 89.5895C125.353 89.9243 125.102 90.1753 124.767 90.1753C121.417 90.3427 109.522 91.0959 100.476 91.0959Z" fill="#231F20"/>
<path d="M109.774 87.4136H123.929C124.935 87.4136 125.772 88.2505 125.772 89.2548V90.7612C125.772 91.7654 124.935 92.6023 123.929 92.6023H109.774C108.768 92.6023 107.931 91.7654 107.931 90.7612V89.2548C107.931 88.1668 108.768 87.4136 109.774 87.4136Z" fill="#231F20"/>
<path d="M123.176 93.1045H110.527C108.768 93.1882 107.261 91.8491 107.177 90.0916C107.093 88.3342 108.433 86.8278 110.192 86.7441C110.276 86.7441 110.444 86.7441 110.527 86.7441H123.176C124.935 86.8278 126.275 88.3342 126.191 90.0916C126.023 91.6817 124.767 93.0208 123.176 93.1045ZM110.444 87.9994C109.355 87.9157 108.433 88.7526 108.35 89.8406C108.266 90.9285 109.103 91.8491 110.192 91.9328C110.276 91.9328 110.36 91.9328 110.444 91.9328H123.092C124.181 91.8491 125.018 90.9285 124.935 89.8406C124.851 88.8363 124.097 88.0831 123.092 87.9994H110.444Z" fill="#231F20"/>
<path d="M117.145 67.8303H104.413C100.225 67.8303 96.8741 64.399 96.8741 60.2145V53.5194C96.8741 53.1846 97.1254 52.9336 97.4604 52.9336H124.264C124.6 52.9336 124.851 53.1846 124.851 53.5194V60.2145C124.851 64.399 121.417 67.8303 117.145 67.8303C117.228 67.8303 117.228 67.8303 117.145 67.8303ZM98.0468 54.1889V60.2145C98.0468 63.7295 100.895 66.6586 104.413 66.6586H117.145C120.663 66.6586 123.594 63.8132 123.594 60.2145V54.1889H98.0468Z" fill="#231F20"/>
<path d="M148.304 67.8303H135.572C131.384 67.8303 127.95 64.399 127.95 60.2145V53.5194C127.95 53.1846 128.201 52.9336 128.536 52.9336H155.34C155.675 52.9336 155.927 53.1846 155.927 53.5194V60.2145C155.927 64.399 152.492 67.8303 148.304 67.8303ZM129.123 54.1889V60.2145C129.123 63.7295 131.971 66.6586 135.572 66.6586H148.304C151.822 66.6586 154.754 63.8132 154.754 60.2145V54.1889H129.123Z" fill="#231F20"/>
<path d="M128.536 57.2017C128.453 57.2017 128.285 57.2017 128.201 57.118C127.029 56.3648 126.107 56.0301 125.437 56.2811C125.186 56.3648 124.935 56.6159 124.851 56.867C124.767 57.2017 124.432 57.3691 124.097 57.2017C123.762 57.118 123.594 56.7833 123.762 56.4485C124.013 55.8627 124.432 55.3605 125.102 55.1095C126.107 54.7747 127.364 55.1095 128.871 56.1137C129.123 56.2811 129.206 56.6996 129.039 56.9506C128.955 57.2017 128.704 57.2854 128.536 57.2017Z" fill="#231F20"/>
<path d="M97.4604 57.2017H93.6911C93.3561 57.2017 93.1048 56.9506 93.1048 56.6159C93.1048 56.2811 93.3561 56.0301 93.6911 56.0301H97.4604C97.7955 56.0301 98.0468 56.2811 98.0468 56.6159C98.0468 56.9506 97.7117 57.2017 97.4604 57.2017Z" fill="#231F20"/>
<path d="M83.3883 63.4784H78.8651C78.5301 63.4784 78.2788 63.2273 78.2788 62.8926C78.2788 62.5578 78.5301 62.3068 78.8651 62.3068H83.3883C83.7234 62.3068 83.9747 62.5578 83.9747 62.8926C83.9747 63.1437 83.7234 63.4784 83.3883 63.4784Z" fill="#D1D3D4"/>
<path d="M83.3883 67.8303H78.8651C78.5301 67.8303 78.2788 67.5792 78.2788 67.2444C78.2788 66.9097 78.5301 66.6586 78.8651 66.6586H83.3883C83.7234 66.6586 83.9747 66.9097 83.9747 67.2444C83.9747 67.5792 83.7234 67.8303 83.3883 67.8303Z" fill="#D1D3D4"/>
<path d="M195.463 276.133H44.8575L31.2042 177.798H209.032L195.463 276.133Z" fill="#231F20"/>
<path d="M195.463 276.719H44.8575C44.5225 276.719 44.3549 276.468 44.2712 276.217L30.7016 177.798C30.6179 177.463 30.8692 177.212 31.2042 177.129H209.032C209.2 177.129 209.367 177.212 209.451 177.296C209.535 177.463 209.619 177.631 209.619 177.714L196.049 276.049C195.965 276.468 195.714 276.719 195.463 276.719ZM45.3601 275.547H194.96L208.362 178.384H31.8743L45.3601 275.547Z" fill="#231F20"/>
<path d="M42.0934 276.133H197.892C199.316 276.133 200.488 277.305 200.488 278.728V280.82C200.488 282.243 199.316 283.414 197.892 283.414H42.0934C40.6694 283.414 39.4967 282.243 39.4967 280.82V278.728C39.4967 277.305 40.6694 276.133 42.0934 276.133Z" fill="#231F20"/>
<path d="M196.803 284H43.1823C40.8369 284 38.9104 282.075 38.9104 279.732C38.9104 277.389 40.8369 275.464 43.1823 275.464H196.887C199.232 275.464 201.159 277.389 201.159 279.732C201.159 282.075 199.148 284 196.803 284ZM43.1823 276.719C41.507 276.719 40.083 278.058 40.083 279.816C40.083 281.573 41.4232 282.912 43.1823 282.912H196.887C198.562 282.912 199.986 281.573 199.986 279.816C199.986 278.058 198.646 276.719 196.887 276.719H43.1823Z" fill="#231F20"/>
<path d="M189.934 276.719H43.1823C42.8472 276.719 42.5959 276.468 42.5959 276.133C42.5959 275.798 42.8472 275.547 43.1823 275.547H190.018C190.353 275.547 190.604 275.798 190.604 276.133C190.521 276.468 190.269 276.719 189.934 276.719Z" fill="white"/>
<path d="M120.16 241.486C112.789 241.486 106.758 235.46 106.758 228.095C106.758 220.731 112.789 214.705 120.16 214.705C127.531 214.705 133.562 220.731 133.562 228.095C133.562 235.46 127.531 241.486 120.16 241.486ZM120.16 215.877C113.375 215.877 107.931 221.317 107.931 228.095C107.931 234.874 113.375 240.314 120.16 240.314C126.945 240.314 132.389 234.874 132.389 228.095C132.306 221.317 126.861 215.877 120.16 215.877Z" fill="white"/>
</svg>
